<?xml version="1.0" standalone="yes"?>
<svg xmlns="http://www.w3.org/2000/svg" width="32" height="32" viewBox="0 0 500 500">
<path style="fill:#e4b31a; stroke:none;" d="M224 35C220.913 34.9095 218.706 34.5065 216 33C214.723 34.9151 214.723 34.085 216 36C213.308 36 211.173 36.3039 209 35L210 34L203 35C204.506 35.683 205.315 35.8259 207 36C204.442 37.2792 201.284 37.9135 199 37L200 36C192.151 38.0316 183.99 40.82 176 42C179.192 43.145 182.619 42.1448 186 42C180.925 43.7213 175.377 45.4623 170 45C169.572 48.278 166.83 47.9732 164 49.0278C158.458 51.0933 155.154 54.6289 149 53C147.955 56.4339 144.92 57.5343 142 59.4491C135.666 63.6026 129.049 68.1984 122 71C123.186 69.8137 123.528 69.4161 124 68C119.136 72.4945 115.261 79.1143 108 80L109 83C105.933 84.1272 103.248 85.5529 100 86C99.5164 88.5953 98.3916 88.968 96 90L97 93C94.6116 94.0894 92.5872 95.5194 90 96L91 99L88 98L88 101C86.5216 100.014 86.7968 100 85 100C85.5977 101.195 85.4661 100.977 87 102L83 102C83.5977 103.195 83.4661 102.977 85 104C82.4606 106.09 80.4967 108.072 79 111C77.9774 109.466 78.1954 109.598 77 109C74.4823 118.559 66.1496 124.339 62 133L62 129C60.357 130.886 59.1912 132.793 58 135L61 134L59 138C57.9774 136.466 58.1954 136.598 57 136C55.8763 138.4 55.6852 139.373 56 142L53 142C49.5817 147.673 48.8493 154.009 45.7492 159.826C43.1694 164.667 39.226 167.369 38 173L41 170L40 175L37 174C36.159 176.467 35.2222 178.699 34 181C37.2263 188.583 30.5203 199.488 27 206L29 206L27 218C25.3649 217.455 25.545 217.635 25 216C21.2812 224.301 21.3894 236.931 21 246C23.5146 240.767 23 234.683 23 229C24.8015 235.095 23.3102 240.815 23.0394 247C22.5977 257.087 22.2126 267.949 23.1698 278C24.7749 294.856 28.6557 311.751 33.3009 328C34.7668 333.128 36.9687 337.7 38 343L37 341C36.9052 344.236 40.3374 347.04 41.8071 350.004C45.3917 357.233 48.2688 363.146 50 371C50.2735 369.672 50.216 369.423 50 368C53.5623 371.176 55.619 374.14 55 379C61.2234 380.79 64.5961 389.627 68.5093 394.461C78.4493 406.741 89.5745 418.005 101 429L94 425C96.8414 428.523 100.286 431.414 104 434L101 429C104.773 431.86 108.503 434.806 112 438L105 435C108.164 437.91 110.77 438.557 115 438C116.789 443.797 125.919 446.776 131.015 449.79C144.393 457.702 157.25 465.508 172 470.88C179.564 473.635 187.274 474.379 195 476.35C253.911 491.385 323.743 481.463 373.259 445.05C377.621 441.842 382.661 439.667 387 436.502C396.435 429.619 405.976 420.055 413.647 411.419C417.706 406.85 424.009 403.722 424 397L429 396C430.938 389.06 436.481 383.86 440.351 377.985C443.746 372.831 445.693 366.463 450 362L449 367C451.2 363.661 451.27 358.949 452 355L455 356C456.261 353.99 457.19 352.222 458 350C456.497 351.663 455.801 352.896 455 355C454.669 349.296 458.184 343.394 460.025 338C464.268 325.567 470.428 312.28 471 299C471.644 301.106 471.906 302.795 472 305C473.009 302.767 473.405 300.396 474 298C470.755 298 471.753 292.706 472.167 290C473.607 280.57 474 271.614 474 262C474 234.509 470.256 208.768 461.667 183C458.426 173.279 453.438 164.364 449.667 155C447.683 150.075 444.4 147.705 445 142C443.805 142.598 444.023 142.466 443 144C441.043 140.3 439.185 137.244 439 133C437.805 133.598 438.023 133.466 437 135C435.165 130.623 432.58 126.953 430 123C431.186 124.186 431.584 124.528 433 125C431.312 122.091 429.663 120.05 427 118L430 123C418.557 113.448 410.996 99.5336 398.911 90.3441C394.751 87.1806 391.137 83.4377 386.985 80.2863C383.643 77.7491 380.112 76.2143 379 72C375.92 72.2432 366.55 68.4995 369 65L365 63C365.472 64.4161 365.814 64.8137 367 66C355.206 59.7947 343.469 53.6491 331 49C332.479 48.0143 332.203 48 334 48C331.844 46.8135 331.165 46.8545 329 48C327.481 45.1507 325.997 44.2019 323 43C320.021 44.8363 317.353 43.5571 314 43L316 42L295 38C297.825 37.3853 300.127 37.6563 303 38C298.866 35.5074 293.648 35.2026 289 34C289 36.6634 286.488 36.4553 284 35.8333C280.673 35.0016 277.435 32.977 274 32.5C268.539 31.7415 261.646 33 256 33C258.729 32.1898 261.15 32.0208 264 32C260.959 30.5316 257.378 31 254 31C246.888 31 239.888 30.4978 233 32.3287C229.877 33.1588 224.532 31.3231 224 35z"/>
<path style="fill:#fefcf3; stroke:none;" d="M226 32C228.613 33.0977 231.164 32.9928 234 33C231.387 31.9023 228.835 32.0072 226 32M256 32C260.974 34.0872 267.638 33 273 33C268.026 30.9128 261.362 32 256 32z"/>
<path style="fill:#e4b31a; stroke:none;" d="M281 32L282 33L281 32z"/>
<path style="fill:#fefcf3; stroke:none;" d="M217 33L217 35L224 35C221.692 33.2405 219.908 33.0828 217 33M276 33C280.487 35.2877 285.002 35.9829 290 36C286.35 33.3899 280.476 33.0493 276 33z"/>
<path style="fill:#e4b31a; stroke:none;" d="M283 33C283.98 34.7833 283.908 34.5943 286 35C284.861 33.9846 284.388 33.6913 283 33z"/>
<path style="fill:#fefcf3; stroke:none;" d="M209 35C211.332 35.9845 213.457 35.9813 216 36C213.492 34.114 212.018 34.1834 209 35M199 37C201.646 37.815 204.226 37.2126 207 37C204.148 35.8121 201.94 36.1356 199 37M290 36C291.769 36.7789 293.036 36.9124 295 37C293.231 36.2211 291.964 36.0876 290 36M295 37C299.807 40.5769 308.084 41.4841 314 42C310.476 37.3659 300.51 37.2366 295 37M190 39C192.756 40.0772 195.107 39.5316 198 39C195.302 38.0312 192.839 38.6472 190 39z"/>
<path style="fill:#e4b31a; stroke:none;" d="M306.667 38.3333C306.222 38.7776 307.278 38.7223 307.333 38.6667C307.778 38.2223 306.722 38.2778 306.667 38.3333z"/>
<path style="fill:#fefcf3; stroke:none;" d="M186 40C187.248 40.6848 187.548 40.7488 189 41C187.752 40.3152 187.452 40.2512 186 40M314 42C316.853 43.8837 319.607 44.66 323 45L323 43C319.937 42.6521 317.085 41.8988 314 42M172 46C176.754 45.192 181.151 43.3966 186 43C181.793 41.2839 174.819 42.2931 172 46z"/>
<path style="fill:#e4b31a; stroke:none;" d="M318 42C319.506 42.683 320.315 42.8259 322 43C320.494 42.317 319.685 42.1741 318 42M174 43L175 44L174 43M168 45L166 46C167.453 46.5547 168.076 46.6045 168 45z"/>
<path style="fill:#fefcf3; stroke:none;" d="M169 45C163.233 48.3417 156.352 50.9157 150 53C155.611 55.2664 166.572 49.6427 171 46L169 45M324 45C325.248 45.6848 325.548 45.7488 327 46C325.752 45.3152 325.452 45.2512 324 45M329.333 46.6667C329.278 46.7223 329.222 47.7777 329.667 47.3333C329.722 47.2778 329.778 46.2222 329.333 46.6667z"/>
<path style="fill:#e4b31a; stroke:none;" d="M162.667 47.3333C162.222 47.7779 163.278 47.7221 163.333 47.6667C163.778 47.2224 162.722 47.2777 162.667 47.3333z"/>
<path style="fill:#fefcf3; stroke:none;" d="M331 48C333.896 50.7485 337.535 51.397 341 53.2994C349.218 57.8107 358.19 62.7942 367 66C361.976 59.7571 353.172 56.5593 346 53.3812C340.817 51.0847 336.789 48.5054 331 48z"/>
<path style="fill:#e4b31a; stroke:none;" d="M335 48L336 49L335 48M158 49L159 50L158 49M338 49L339 50L338 49M156.667 50.3333C156.222 50.7779 157.278 50.7221 157.333 50.6667C157.778 50.2224 156.722 50.2777 156.667 50.3333M342 51L343 52L342 51M343.667 52.3333C343.222 52.7777 344.278 52.7222 344.333 52.6667C344.778 52.2222 343.722 52.2778 343.667 52.3333M345 53L346 54L345 53z"/>
<path style="fill:#fefcf3; stroke:none;" d="M122 71C131.011 68.4948 143.787 60.9367 150 54C141.238 56.5784 127.935 64.0712 122 71z"/>
<path style="fill:#e4b31a; stroke:none;" d="M349.667 54.3333C349.222 54.7777 350.278 54.7223 350.333 54.6667C350.778 54.2222 349.722 54.2778 349.667 54.3333M145 55L146 56L145 55M143 56L144 57L143 56M142 57L143 58L142 57M354 57L355 58L354 57M140 58L141 59L140 58M356 58L357 59L356 58M139 59L140 60L139 59M358 59L359 60L358 59M360 60L361 61L360 60M134 61C135.248 61.6848 135.548 61.7488 137 62C135.752 61.3152 135.452 61.2512 134 61M361.667 61.3333C361.222 61.7777 362.278 61.7223 362.333 61.6667C362.778 61.2223 361.722 61.2778 361.667 61.3333M133 62L134 63L133 62M131 63L132 64L131 63M130 64L131 65L130 64M128.667 65.3333C128.222 65.7779 129.278 65.7221 129.333 65.6667C129.778 65.2224 128.722 65.2777 128.667 65.3333M127 66L128 67L127 66z"/>
<path style="fill:#fefcf3; stroke:none;" d="M367 66C370.102 69.2259 373.747 71.5921 378 73C375.435 69.231 371.436 66.8917 367 66z"/>
<path style="fill:#e4b31a; stroke:none;" d="M125 67L126 68L125 67M373 68L374 69L373 68M374 69L375 70L374 69M375 70L376 71L375 70z"/>
<path style="fill:#fefcf3; stroke:none;" d="M109 81C113.988 78.529 118.664 75.4931 122 71C117.009 72.9196 111.6 76.2456 109 81z"/>
<path style="fill:#e4b31a; stroke:none;" d="M118 72L119 73L118 72M116 73L117 74L116 73z"/>
<path style="fill:#fefcf3; stroke:none;" d="M378 73C382.626 80.8456 393.889 86.4145 400.715 92.5178C406.973 98.1135 413.112 104.625 418.572 111C422.182 115.216 425.121 120.227 430 123C423.829 108.423 407.687 96.0357 395.999 85.8411C390.515 81.0573 385.024 75.3297 378 73z"/>
<path style="fill:#e4b31a; stroke:none;" d="M380 73L381 74L380 73M113.667 75.3333C113.222 75.7777 114.278 75.7222 114.333 75.6667C114.778 75.2221 113.722 75.2778 113.667 75.3333M112 76L113 77L112 76M384 76L385 77L384 76M387 78L388 79L387 78M388 79L389 80L388 79M106 81C104.814 82.1863 104.472 82.5837 104 84C105.548 82.7383 105.808 82.8061 106 81z"/>
<path style="fill:#fefcf3; stroke:none;" d="M101 87C104.467 85.6818 107.058 84.1989 109 81C105.661 82.3904 102.959 83.9243 101 87z"/>
<path style="fill:#e4b31a; stroke:none;" d="M393 83L394 84L393 83M394 84L395 85L394 84M395 85L396 86L395 85M396 86L397 87L396 86z"/>
<path style="fill:#fefcf3; stroke:none;" d="M98 90C99.4566 88.8966 99.8966 88.4566 101 87C98.8764 87.8993 98.8993 87.8763 98 90z"/>
<path style="fill:#e4b31a; stroke:none;" d="M397.667 87.3333C397.222 87.7778 398.278 87.7222 398.333 87.6667C398.778 87.2223 397.722 87.2778 397.667 87.3333M399 88L400 89L399 88M400 89L401 90L400 89M401 90L402 91L401 90M94 91L91 95C92.7561 93.6231 93.5396 93.1059 94 91z"/>
<path style="fill:#fefcf3; stroke:none;" d="M91 97C93.7237 95.333 95.5592 93.8628 97 91C93.8959 92.4821 92.4821 93.896 91 97z"/>
<path style="fill:#e4b31a; stroke:none;" d="M403 92L404 93L403 92M405 94L406 95L405 94M407 96L408 97L407 96z"/>
<path style="fill:#fefcf3; stroke:none;" d="M89 97L89 99L91 99L91 97L89 97z"/>
<path style="fill:#e4b31a; stroke:none;" d="M409 98L410 99L409 98z"/>
<path style="fill:#fefcf3; stroke:none;" d="M87 99L87 101C88.6352 100.455 88.4549 100.635 89 99L87 99z"/>
<path style="fill:#e4b31a; stroke:none;" d="M410 99L411 100L410 99M411 100L412 101L411 100z"/>
<path style="fill:#fefcf3; stroke:none;" d="M85 101L85 103C86.6351 102.455 86.4549 102.635 87 101L85 101z"/>
<path style="fill:#e4b31a; stroke:none;" d="M412 101L413 102L412 101M413 102L414 103L413 102z"/>
<path style="fill:#fefcf3; stroke:none;" d="M78 111C80.834 108.607 83.0865 106.182 85 103C81.3216 104.787 79.1194 107.038 78 111z"/>
<path style="fill:#e4b31a; stroke:none;" d="M81 104L82 105L81 104M416 105L417 106L416 105M80 106L81 107L80 106M418 107L419 108L418 107M419 108L420 109L419 108M420 109L421 110L420 109M421 111L422 112L421 111z"/>
<path style="fill:#fefcf3; stroke:none;" d="M61 133C67.2656 127.296 73.0107 119.464 77 112C70.3099 115.418 62.8868 125.769 61 133z"/>
<path style="fill:#e4b31a; stroke:none;" d="M423 113L424 114L423 113M424 114L425 115L424 114M72 115L73 116L72 115M425 115L426 116L425 115M71 116L72 117L71 116M426 116L427 117L426 116M70 118L71 119L70 118M69 119L70 120L69 119M68 120L69 121L68 120z"/>
<path style="fill:#fefcf3; stroke:none;" d="M214 120L215 188C210.379 184.171 208.46 175.934 202.826 173.603C199.173 172.092 193.881 173 190 173L162 173C158.306 173 151.479 171.728 148.603 174.603C145.261 177.946 146.398 190.54 147.148 194.941C148.746 204.317 164.925 194.198 168.397 202.148C169.524 204.731 169 208.254 169 211L169 229L169 292L169 312C168.999 314.803 169.466 318.329 167.972 320.852C164.796 326.217 153.3 324 148 324L148 352L216 352L216 393L233 393C235.236 392.995 238.508 393.468 240.397 391.972C244.046 389.082 242 377.234 242 373L242 318L215 318L215 325L201 325L201 248C206.499 252.48 209.661 259.187 213.666 264.961C222.378 277.522 230.433 290.548 239.291 303C243.418 308.801 247.423 319.727 255 321L255 368C255 374.606 253.433 383.504 255.318 389.852C256.935 395.3 270.526 393.08 274.999 392.995C276.981 392.958 279.594 393.136 280.972 391.397C284.01 387.561 282 376.705 282 372L282 318L257 318C259.709 309.441 266.187 302.01 271.226 294.715L288.961 269C293.307 262.756 297.043 253.555 304 250L304 324L285 324L285 352C303.075 352 321.007 352.912 339 352.999C343.075 353.019 354.177 354.926 356.972 351.397C358.301 349.719 357.986 346.992 357.999 345C358.034 340.02 358.2 334.98 357.981 330.005C357.889 327.931 357.79 325.641 355.682 324.603C350.398 322.003 338.44 327.669 336.318 319.941C334.218 312.295 336 301.919 336 294C336 273.654 336.901 253.269 336.999 233L337 212C337.001 209.008 336.424 204.948 338.179 202.318C341.97 196.637 351.649 202.732 356.397 198.972C359.995 196.123 358.074 184.185 357.995 180.001C357.958 178.019 358.136 175.406 356.397 174.028C354.508 172.532 351.236 173.005 349 173L333 173C322.316 173 303.185 169.102 295.669 178.044C289.01 185.967 285.548 195.423 280.37 204.17C275.878 211.755 269.937 218.45 265.181 225.87C262.378 230.243 257.124 241.332 251.079 241.365C246.916 241.387 242.826 233.995 240.864 230.996C233.601 219.891 226.379 208.632 220 197L241 197L241 120L214 120M255 120L255 177C255 181.235 252.954 193.082 256.603 195.972C258.492 197.468 261.764 196.995 264 197L282 197L282 120L255 120M430 123C431.862 127.204 434.647 131.028 437 135C438.324 130.013 433.723 125.749 430 123z"/>
<path style="fill:#e4b31a; stroke:none;" d="M65 124L66 125L65 124M64 125L65 126L64 125M63 126L64 127L63 126M434 126L435 127L434 126M435 128L436 129L435 128M436 129L437 130L436 129z"/>
<path style="fill:#fefcf3; stroke:none;" d="M59 134L58 138C59.4336 136.607 60.0448 135.767 61 134L59 134M438 135C439.353 138.687 441.005 141.451 444 144C443.075 140.065 441.494 137.122 438 135z"/>
<path style="fill:#e4b31a; stroke:none;" d="M440 136L441 137L440 136M441 137L442 138L441 137z"/>
<path style="fill:#fefcf3; stroke:none;" d="M56 138L56 140C57.6352 139.455 57.4549 139.635 58 138L56 138z"/>
<path style="fill:#e4b31a; stroke:none;" d="M442 139L443 140L442 139z"/>
<path style="fill:#fefcf3; stroke:none;" d="M54 140L54 143C55.1952 141.777 55.3164 141.58 56 140L54 140z"/>
<path style="fill:#e4b31a; stroke:none;" d="M443 140L444 141L443 140z"/>
<path style="fill:#fefcf3; stroke:none;" d="M53 143L50 150C52.4008 147.885 53.8502 146.22 53 143M444 144C446.794 154.113 453.356 163.34 457.497 173C463.237 186.391 467.872 201.733 470.624 216C474.358 235.354 474.822 256.324 473.961 276C473.622 283.74 472 291.198 472 299C475.048 295.038 474.735 289.83 475.089 285C475.654 277.283 476 269.762 476 262C476 230.465 471.186 197.871 457.781 169C454.178 161.241 451.149 149.229 444 144z"/>
<path style="fill:#e4b31a; stroke:none;" d="M446.333 145.667C446.278 145.722 446.222 146.778 446.667 146.333C446.722 146.278 446.778 145.222 446.333 145.667M447 148L448 149L447 148M448.333 149.667C448.278 149.722 448.222 150.778 448.667 150.333C448.722 150.278 448.778 149.222 448.333 149.667z"/>
<path style="fill:#fefcf3; stroke:none;" d="M48 151L41 165C46.2701 162.35 47.9413 156.233 50 151L48 151z"/>
<path style="fill:#e4b31a; stroke:none;" d="M450 153L451 154L450 153M46 154L47 155L46 154M451 154L452 155L451 154M44.3333 157.667C44.2778 157.722 44.2222 158.778 44.6667 158.333C44.7222 158.278 44.7778 157.222 44.3333 157.667M453 159L454 160L453 159M454 160L455 161L454 160M42 162L43 163L42 162M455 163L456 164L455 163M457 168L458 169L457 168z"/>
<path style="fill:#fefcf3; stroke:none;" d="M39 170L38 175C39.9676 173.536 40.352 172.394 41 170L39 170z"/>
<path style="fill:#e4b31a; stroke:none;" d="M458 170L459 171L458 170M459 172L460 173L459 172z"/>
<path style="fill:#fefcf3; stroke:none;" d="M37 176L36 181C37.8793 179.377 37.9157 178.3 37 176z"/>
<path style="fill:#e4b31a; stroke:none;" d="M461.333 177.667C461.278 177.722 461.222 178.778 461.667 178.333C461.722 178.278 461.778 177.222 461.333 177.667z"/>
<path style="fill:#fefcf3; stroke:none;" d="M34 182C32.3847 189.043 30.1524 196.105 28 203C33.2851 199.665 34.9842 187.996 36 182L34 182z"/>
<path style="fill:#e4b31a; stroke:none;" d="M463.333 182.667C463.278 182.722 463.222 183.778 463.667 183.333C463.722 183.278 463.778 182.222 463.333 182.667M33 184L34 185L33 184M32 185L32 188C32.6961 186.446 32.6961 186.554 32 185M464 185L464 189C464.71 187.24 464.71 186.76 464 185M31 189L31 192C31.6961 190.446 31.6961 190.554 31 189M30 192L31 193L30 192M29 196L29 200C29.7102 198.241 29.7102 197.76 29 196M468 199L469 200L468 199M28 200L29 201L28 200M469 201L469 204C469.696 202.446 469.696 202.554 469 201M470 205L470 210C470.83 207.969 470.83 207.03 470 205z"/>
<path style="fill:#fefcf3; stroke:none;" d="M27 206L25 218C28.9357 215.449 27.9826 210.273 29 206L27 206z"/>
<path style="fill:#e4b31a; stroke:none;" d="M26 209L27 210L26 209M471 210L471 213C471.696 211.446 471.696 211.554 471 210M25.3333 211.667C25.2778 211.722 25.2222 212.778 25.6667 212.333C25.7223 212.278 25.7778 211.222 25.3333 211.667M472 215C472.01 218.094 471.591 220.896 474 223C473.349 220.302 473.092 217.527 472 215z"/>
<path style="fill:#fefcf3; stroke:none;" d="M24.3333 222.667C24.2778 222.722 24.2222 223.778 24.6667 223.333C24.7223 223.278 24.7778 222.222 24.3333 222.667M23 229C23 242.1 20.4605 254.78 21.0394 268C22.1933 294.353 28.9335 318.209 37 343C38.489 338.144 35.6026 333.503 33.9506 329C32.0111 323.714 30.5921 317.5 29.3642 312C25.3886 294.192 23 277.286 23 259C23 250.115 26.4462 237.213 23 229z"/>
<path style="fill:#e4b31a; stroke:none;" d="M474 229L475 230L474 229M475 230L476 231L475 230M475 241L476 242L475 241M476 251L476 274C478.284 268.557 478.284 256.443 476 251M21 272L21 280C22.1614 277.23 22.1614 274.77 21 272M22 281L22 291C23.3457 287.793 23.3457 284.207 22 281M475 281L476 282L475 281M23 291L23 298C24.0595 295.466 24.0595 293.534 23 291M474 292L475 293L474 292M24 299L25 300L24 299z"/>
<path style="fill:#fefcf3; stroke:none;" d="M471 299C469.839 313.563 463.221 328.321 458.417 342C456.858 346.437 454.705 350.295 454 355C458.847 349.758 461.131 341.708 463.294 335C465.577 327.923 468.188 321.288 469.815 314C470.942 308.952 473.113 304.037 471 299z"/>
<path style="fill:#e4b31a; stroke:none;" d="M24 302L24 305C24.6961 303.446 24.6961 303.554 24 302M25 305L26 306L25 305M471 308L470 314C471.305 311.819 471.736 310.433 471 308M26 310L27 311L26 310M27 311L27 315C27.7102 313.24 27.7102 312.759 27 311M28.3333 315.667C28.2778 315.722 28.2223 316.778 28.6667 316.333C28.7222 316.278 28.7778 315.222 28.3333 315.667M469 315L470 316L469 315M28 319L29 320L28 319M29 320L29 324C29.7102 322.24 29.7102 321.759 29 320M467 323L468 324L467 323M466 326L467 327L466 326M31 328L32 329L31 328M465 329L466 330L465 329M464 330L464 333C464.696 331.446 464.696 331.554 464 330M33 332L33 335C33.6961 333.446 33.6961 333.554 33 332M463 334L463 337C463.696 335.446 463.696 335.554 463 334M34 335L34 338C34.6961 336.446 34.6961 336.554 34 335M35.3333 338.667C35.2777 338.722 35.2222 339.778 35.6667 339.333C35.7222 339.278 35.7778 338.222 35.3333 338.667M460 343L461 344L460 343z"/>
<path style="fill:#fefcf3; stroke:none;" d="M38 344C39.3755 351.216 43.9415 363.5 50 368C48.7011 360.363 43.7283 349.232 38 344z"/>
<path style="fill:#e4b31a; stroke:none;" d="M459 345L460 346L459 345M458 346L458 349C458.696 347.446 458.696 347.554 458 346M39 349L40 350L39 349M40.3333 350.667C40.2777 350.722 40.2222 351.778 40.6667 351.333C40.7222 351.278 40.7778 350.222 40.3333 350.667M41.3333 353.667C41.2777 353.722 41.2223 354.778 41.6667 354.333C41.7222 354.278 41.7778 353.222 41.3333 353.667z"/>
<path style="fill:#fefcf3; stroke:none;" d="M452 355L450 362C452.589 360.161 453.327 358.075 454 355L452 355z"/>
<path style="fill:#e4b31a; stroke:none;" d="M42 357L43 358L42 357M454 357L455 358L454 357M43 358L44 359L43 358M453 358L454 359L453 358M452 359L452 362C452.696 360.446 452.696 360.554 452 359M44.3333 360.667C44.2777 360.722 44.2222 361.778 44.6667 361.333C44.7222 361.278 44.7778 360.222 44.3333 360.667z"/>
<path style="fill:#fefcf3; stroke:none;" d="M448 362C446.166 367.792 442.611 374.114 438.951 378.961C435.139 384.007 430.012 389.588 429 396C427.122 396.176 425.801 396.438 424 397C423.565 403.237 417.547 406.484 413.647 410.71C405.441 419.603 395.899 429.28 386 436.502C381.689 439.646 376.704 441.729 372.455 445.05C357.319 456.881 339.204 464.726 321 470.685C280.297 484.009 237.566 486.958 196 476.35C189.361 474.656 182.531 474.215 176 471.971C164.679 468.082 152.088 463.026 142 456.617C134.349 451.755 126.871 447.14 119.053 442.702C116.433 441.215 114.866 438.982 112 438C115.089 444.335 122.558 447.851 128.425 451.413C142.309 459.843 156.74 466.783 172 472.285C177.771 474.367 183.754 477.722 190 477C193.416 481.061 201.962 481.087 207 481.92C212.294 482.795 217.71 484.277 223 484.871C233.473 486.047 244.464 484.807 255 485.014C315.654 486.207 377.018 455.453 417.17 411C426.051 401.167 434.134 391.165 441.308 380C444.913 374.389 448.957 368.686 450 362L448 362z"/>
<path style="fill:#e4b31a; stroke:none;" d="M47 364L48 365L47 364z"/>
<path style="fill:#fefcf3; stroke:none;" d="M50 368C51.0948 371.723 52.8699 374.768 55 378C56.4679 373.709 53.6353 370.145 50 368z"/>
<path style="fill:#e4b31a; stroke:none;" d="M446 371L447 372L446 371M445 373L446 374L445 373M52 374L53 375L52 374M444 374L445 375L444 374M53 375L54 376L53 375M443 376L444 377L443 376z"/>
<path style="fill:#fefcf3; stroke:none;" d="M56 378C58.5119 385.883 64.5516 392.803 69.8696 399C78.5492 409.114 88.0936 424.095 101 429C95.3414 421.379 87.1214 416.054 81.2052 408.674C77.1368 403.599 72.4447 398.823 68.5093 393.7C64.4144 388.369 61.3896 382.137 56 378z"/>
<path style="fill:#e4b31a; stroke:none;" d="M442 378L443 379L442 378M441 379L442 380L441 379M56 380L57 381L56 380M440 381L441 382L440 381M57 382L58 383L57 382M439 382L440 383L439 382M58 383L59 384L58 383M438 384L439 385L438 384M59 385L60 386L59 385M437.333 385.667C437.278 385.722 437.222 386.778 437.667 386.333C437.722 386.278 437.778 385.222 437.333 385.667M436 387L437 388L436 387M62 389L63 390L62 389M433 391L434 392L433 391M432 392L433 393L432 392M65 393L66 394L65 393M430 394L431 395L430 394M69 398L70 399L69 398M70 399L71 400L70 399M71 400L72 401L70 400M72 402L73 403L72 402M73 403L74 404L73 403M424 403L425 404L424 403M74 404L75 405L74 404M423 404L424 405L423 404M75 405L76 406L75 405M421 406L422 407L421 406M420 407L421 408L420 407M78 408L79 409L78 408M419 408L420 409L419 408M418 409L419 410L418 409M79 410L80 411L79 410M417 410L418 411L417 410M80 411L81 412L80 411M416 411L417 412L416 411M84 415L85 416L84 415M413 415L414 416L413 415M412 416L413 417L412 416M411 417L412 418L411 417M410 418L411 419L410 418M88.3333 419.667C88.2778 419.722 88.2222 420.778 88.6667 420.333C88.7222 420.278 88.7778 419.222 88.3333 419.667M409 419L410 420L409 419M408 420L409 421L408 420M90 421L91 422L90 421M406 422L407 423L406 422M92 423L93 424L92 423M401 426L402 427L401 426M399 428L400 429L399 428z"/>
<path style="fill:#fefcf3; stroke:none;" d="M101 429C103.274 433.772 107.014 436.408 112 438C109.101 434.243 105.222 431.181 101 429z"/>
<path style="fill:#e4b31a; stroke:none;" d="M393 433L394 434L393 433M387 438L388 439L387 438M386 439L387 440L386 439M384 440L385 441L384 440M114 442L115 443L114 442M116 443L117 444L116 443M379 444L380 445L379 444M118 445L119 446L118 445M378 445L379 446L378 445M121 446L122 447L121 446M376 446L377 447L376 446M374 447L375 448L374 447M123 448L124 449L123 448M373 448L374 449L373 448M125 449L126 450L125 449M126.667 450.333C126.222 450.778 127.278 450.722 127.333 450.667C127.778 450.222 126.722 450.278 126.667 450.333M127 452L128 453L127 452M130 453L131 454L130 453M133 454L134 455L133 454M134 455L135 456L134 455M137 456L138 457L137 456M142 459L143 460L142 459M145 460L146 461L145 460M146 461L147 462L146 461M148 462L149 463L148 462M152 464L153 465L152 464M153.667 465.333C153.222 465.778 154.278 465.722 154.333 465.667C154.778 465.222 153.722 465.278 153.667 465.333M158 467L159 468L158 467M159 468L160 469L159 468M161 469L162 470L161 469M167 471L168 472L167 471M170 472L171 473L170 472M174 473L175 474L174 473M177 474L178 475L177 474M182 476L183 477L182 476M185 477L186 478L185 477M188.667 477.333C188.222 477.778 189.278 477.722 189.333 477.667C189.778 477.222 188.722 477.278 188.667 477.333M194 479L195 480L194 479M204 481L205 482L204 481M210 482L211 483L210 482M284 482L285 483L284 482M287 482C288.506 482.683 289.315 482.826 291 483C289.494 482.317 288.685 482.174 287 482M211 483C213.613 484.098 216.164 483.993 219 484C216.387 482.902 213.835 483.007 211 483M277 483C279.332 483.985 281.457 483.981 284 484C281.668 483.015 279.543 483.019 277 483M219 484L220 485L219 484M275.667 484.333C275.222 484.778 276.278 484.722 276.333 484.667C276.778 484.222 275.722 484.278 275.667 484.333M234 485C241.409 488.109 252.975 486 261 486C253.591 482.891 242.025 485 234 485M262 485L263 486L262 485z"/>
</svg>
