<svg xmlns="http://www.w3.org/2000/svg" width="32" height="32" viewBox="0 0 500 500" version="1.1">
	<path d="M 240 31.251 C 239.725 31.526, 235.225 31.991, 230 32.285 C 217.293 33.001, 202.939 35.093, 203.584 36.136 C 203.870 36.598, 203.482 36.738, 202.721 36.446 C 200.180 35.472, 177 41.603, 177 43.250 C 177 43.728, 176.583 43.860, 176.074 43.546 C 175.168 42.986, 163.990 46.708, 163 47.899 C 162.725 48.229, 161.681 48.639, 160.680 48.810 C 156.076 49.594, 134.348 61.015, 135.421 62.088 C 135.692 62.359, 135.058 62.645, 134.012 62.724 C 131.762 62.894, 114 74.751, 114 76.083 C 114 76.587, 113.542 77, 112.981 77 C 111.323 77, 100.500 85.886, 100.500 87.248 C 100.500 87.937, 100.050 88.507, 99.500 88.515 C 97.641 88.544, 95.963 90.131, 96.638 91.224 C 97.007 91.821, 96.857 92.029, 96.304 91.688 C 95.042 90.908, 79.803 105.872, 80.579 107.128 C 80.892 107.635, 80.553 107.926, 79.824 107.775 C 79.096 107.624, 78.624 108.096, 78.775 108.824 C 78.926 109.553, 78.669 109.913, 78.203 109.626 C 77.280 109.055, 76.988 109.365, 69.179 119.236 C 66.069 123.167, 64.160 126.449, 64.584 127.135 C 65.025 127.850, 64.877 128.042, 64.206 127.628 C 62.188 126.380, 44.180 155.864, 45.578 158.126 C 46.002 158.812, 45.882 159.045, 45.292 158.680 C 44.028 157.899, 37.766 171.779, 38.669 173.360 C 39.027 173.987, 38.933 174.147, 38.459 173.715 C 37.486 172.830, 31.703 187.710, 32.511 189.019 C 32.798 189.482, 32.545 190.163, 31.948 190.532 C 31.352 190.901, 31.114 191.855, 31.420 192.653 C 31.727 193.451, 31.570 193.852, 31.072 193.544 C 29.613 192.643, 24.473 215.338, 25.690 217.308 C 26.066 217.916, 25.794 217.991, 24.998 217.499 C 23.973 216.865, 23.818 217.488, 24.285 220.367 C 24.696 222.899, 24.541 223.834, 23.789 223.369 C 23.035 222.903, 22.866 223.967, 23.246 226.798 C 23.559 229.133, 23.369 231.044, 22.804 231.232 C 21.519 231.660, 20.362 279, 21.637 279 C 22.141 279, 22.380 280.808, 22.170 283.019 C 21.959 285.229, 22.266 287.615, 22.851 288.321 C 23.437 289.027, 23.659 290.586, 23.345 291.787 C 23.031 292.988, 23.115 294.764, 23.531 295.735 C 23.947 296.706, 24.183 298.788, 24.056 300.363 C 23.916 302.103, 24.226 302.978, 24.846 302.595 C 25.454 302.219, 25.835 303.105, 25.787 304.787 C 25.664 309.113, 28.057 317.998, 29.350 318.015 C 30.083 318.025, 30.021 318.335, 29.176 318.870 C 28.086 319.561, 28.100 319.957, 29.256 321.114 C 30.029 321.886, 30.450 323.150, 30.193 323.922 C 29.935 324.694, 30.548 325.927, 31.554 326.663 C 32.595 327.424, 32.844 328, 32.132 328 C 31.445 328, 31.165 328.457, 31.510 329.016 C 31.856 329.575, 32.670 329.734, 33.319 329.370 C 34.204 328.873, 34.216 329.015, 33.366 329.938 C 32.002 331.418, 32.788 335.249, 34.268 334.334 C 34.875 333.959, 35.009 334.176, 34.590 334.854 C 33.651 336.373, 34.872 340.197, 36.061 339.463 C 36.565 339.151, 36.732 339.534, 36.434 340.313 C 35.788 341.994, 40.005 352.115, 41.075 351.454 C 41.481 351.203, 41.599 351.817, 41.337 352.818 C 41.075 353.820, 41.567 355.226, 42.430 355.942 C 43.294 356.659, 44 357.865, 44 358.622 C 44 359.380, 44.450 360, 45 360 C 45.550 360, 46 360.927, 46 362.059 C 46 363.191, 46.399 363.871, 46.887 363.570 C 47.375 363.268, 47.712 363.804, 47.637 364.761 C 47.562 365.717, 48.046 366.393, 48.714 366.262 C 49.416 366.124, 49.687 366.652, 49.357 367.512 C 49.043 368.330, 49.311 369, 49.952 369 C 50.593 369, 50.892 369.366, 50.616 369.812 C 49.986 370.832, 53.443 376.224, 54.225 375.441 C 54.541 375.125, 54.732 375.684, 54.650 376.683 C 54.566 377.695, 55.075 378.382, 55.797 378.234 C 56.550 378.080, 56.970 378.710, 56.797 379.734 C 56.634 380.705, 57.046 381.393, 57.714 381.262 C 58.382 381.131, 58.712 381.586, 58.449 382.273 C 58.185 382.959, 59.301 384.979, 60.929 386.761 C 62.556 388.542, 63.633 390, 63.321 390 C 63.010 390, 63.311 390.670, 63.991 391.489 C 64.671 392.308, 65.536 392.787, 65.913 392.554 C 66.291 392.320, 67.173 393.047, 67.874 394.169 C 68.920 395.844, 68.911 396.086, 67.824 395.518 C 67.096 395.138, 67.625 395.755, 69 396.891 C 70.375 398.026, 71.107 398.966, 70.628 398.978 C 70.148 398.990, 70.311 399.670, 70.991 400.489 C 71.671 401.308, 72.620 401.735, 73.102 401.437 C 73.583 401.140, 73.742 401.508, 73.456 402.255 C 73.146 403.063, 77.640 408.460, 84.532 415.557 C 90.910 422.126, 95.796 426.825, 95.388 426 C 94.981 425.175, 96.809 426.880, 99.451 429.789 C 102.094 432.698, 104.491 434.842, 104.779 434.555 C 105.067 434.267, 105.901 434.812, 106.632 435.766 C 107.801 437.289, 108.097 437.318, 109.075 436 C 110.037 434.705, 110.117 434.726, 109.662 436.156 C 109.059 438.050, 112.089 441.228, 114.079 440.792 C 114.811 440.631, 115.450 441.175, 115.500 442 C 115.550 442.825, 116.133 443.388, 116.795 443.250 C 117.458 443.113, 118 443.407, 118 443.904 C 118 445.038, 133.947 455.333, 135.704 455.333 C 136.417 455.333, 137 455.625, 137 455.983 C 137 457.242, 145.007 461.114, 146.150 460.407 C 146.790 460.012, 147.041 460.125, 146.711 460.659 C 146.382 461.191, 149.070 463.085, 152.684 464.867 C 157.214 467.101, 159.076 467.640, 158.678 466.604 C 158.291 465.594, 158.566 465.280, 159.519 465.646 C 160.299 465.945, 160.898 466.485, 160.850 466.845 C 160.595 468.767, 161.146 469.321, 162 468 C 162.815 466.738, 162.972 466.798, 162.985 468.372 C 162.998 469.953, 163.242 470.044, 164.556 468.953 C 165.843 467.885, 166.060 467.907, 165.806 469.081 C 165.626 469.914, 166.218 470.443, 167.239 470.363 C 168.196 470.288, 168.732 470.625, 168.430 471.113 C 168.129 471.601, 168.610 472, 169.500 472 C 170.468 472, 170.832 471.536, 170.405 470.845 C 169.959 470.124, 170.131 469.963, 170.862 470.415 C 171.506 470.813, 171.796 471.520, 171.508 471.988 C 171.219 472.455, 172.449 473.151, 174.241 473.534 C 176.034 473.917, 178.041 474.666, 178.702 475.198 C 179.363 475.730, 180.882 475.855, 182.077 475.475 C 183.645 474.978, 184.041 475.124, 183.500 476 C 182.941 476.905, 183.609 477.044, 186.125 476.546 C 188.300 476.116, 189.025 476.207, 188.165 476.801 C 187.131 477.515, 187.299 477.845, 188.915 478.268 C 190.137 478.587, 191.006 478.334, 191.015 477.656 C 191.025 476.925, 191.344 476.995, 191.884 477.847 C 192.789 479.274, 205 482.250, 205 481.043 C 205 480.653, 205.632 480.333, 206.405 480.333 C 207.177 480.333, 207.579 480.933, 207.298 481.667 C 206.950 482.572, 207.641 483, 209.452 483 C 211.179 483, 211.872 482.602, 211.420 481.870 C 210.992 481.178, 211.260 480.936, 212.111 481.245 C 212.875 481.523, 213.403 482.209, 213.285 482.770 C 213.167 483.331, 214.629 483.971, 216.535 484.194 C 218.538 484.428, 220.006 484.156, 220.015 483.549 C 220.024 482.972, 220.442 483.150, 220.944 483.944 C 221.698 485.135, 226.044 485.398, 245.679 485.443 C 268.827 485.495, 283.474 484.576, 282.579 483.128 C 282.338 482.738, 283.684 482.598, 285.570 482.818 C 287.760 483.074, 289 482.794, 289 482.042 C 289 481.320, 289.773 481.111, 291 481.500 C 292.100 481.849, 293 481.752, 293 481.285 C 293 480.817, 295.137 480.347, 297.750 480.239 C 300.363 480.131, 303.400 479.646, 304.500 479.160 C 307.971 477.628, 313.575 476, 315.380 476 C 316.439 476, 316.839 475.549, 316.405 474.845 C 315.984 474.165, 316.128 473.961, 316.755 474.349 C 318.259 475.278, 321.120 474.003, 320.345 472.749 C 319.923 472.067, 320.644 471.945, 322.435 472.394 C 324.071 472.805, 324.933 472.700, 324.582 472.133 C 324.254 471.602, 324.875 471.416, 325.999 471.710 C 327.162 472.014, 328 471.741, 328 471.058 C 328 470.411, 328.419 470.141, 328.931 470.457 C 329.443 470.774, 330.143 470.578, 330.487 470.022 C 330.830 469.466, 332.099 468.534, 333.306 467.950 C 335.423 466.927, 335.432 466.944, 333.559 468.445 C 330.814 470.644, 332.366 470.374, 337.290 467.795 C 339.605 466.583, 341.725 465.565, 342 465.534 C 344.004 465.306, 348.877 462.610, 348.471 461.953 C 348.194 461.505, 348.425 460.856, 348.984 460.510 C 349.543 460.165, 350.007 460.471, 350.015 461.191 C 350.028 462.250, 350.193 462.244, 350.877 461.165 C 351.343 460.430, 351.898 459.934, 352.112 460.061 C 352.989 460.586, 357 458.791, 357 457.874 C 357 457.328, 357.434 457.150, 357.964 457.477 C 358.493 457.805, 359.843 457.157, 360.964 456.036 C 362.084 454.916, 363 454.254, 363 454.564 C 363 454.874, 364.782 454.127, 366.959 452.903 C 369.137 451.679, 370.642 450.230, 370.305 449.684 C 369.967 449.138, 370.158 448.979, 370.728 449.332 C 371.982 450.107, 377.232 446.184, 376.508 445.013 C 376.227 444.559, 376.847 444.409, 377.886 444.680 C 379.668 445.146, 381.451 443.612, 381.485 441.583 C 381.493 441.079, 382.175 440.482, 383 440.257 C 384.333 439.893, 384.333 439.976, 383 441 C 381.667 442.024, 381.667 442.104, 383 441.719 C 383.825 441.480, 384.447 440.603, 384.382 439.771 C 384.302 438.730, 384.928 438.400, 386.382 438.715 C 387.761 439.013, 388.078 438.869, 387.290 438.302 C 386.401 437.662, 386.627 437.089, 388.145 436.142 C 389.562 435.257, 389.981 435.222, 389.482 436.030 C 389.081 436.678, 389.930 436.437, 391.368 435.494 C 392.806 434.552, 393.774 433.444, 393.519 433.031 C 393.264 432.619, 394.363 431.116, 395.962 429.692 C 397.560 428.268, 399.010 427.475, 399.184 427.931 C 399.358 428.387, 401.300 426.962, 403.500 424.764 C 405.700 422.567, 406.825 421.115, 406 421.538 C 405.171 421.963, 405.394 421.401, 406.500 420.282 C 407.600 419.167, 408.907 418.493, 409.405 418.782 C 409.902 419.072, 410.028 418.855, 409.685 418.300 C 409.342 417.745, 410.245 416.213, 411.692 414.895 C 413.139 413.578, 413.955 413.175, 413.507 414 C 413.058 414.825, 414.094 414.194, 415.810 412.597 C 417.525 411, 418.686 409.302, 418.390 408.822 C 418.094 408.343, 418.447 408.074, 419.176 408.225 C 419.904 408.376, 420.378 407.908, 420.228 407.185 C 419.932 405.751, 423.440 400.773, 424.207 401.540 C 424.466 401.800, 425.539 401.032, 426.589 399.834 C 427.640 398.636, 427.938 397.985, 427.250 398.387 C 425.478 399.423, 425.699 398.653, 427.903 396.112 C 428.950 394.905, 429.964 394.391, 430.156 394.969 C 430.349 395.547, 431.101 395.068, 431.827 393.905 C 432.553 392.742, 432.664 392.089, 432.074 392.454 C 430.545 393.399, 430.744 392.113, 432.381 390.476 C 433.140 389.717, 434.078 389.411, 434.464 389.798 C 434.851 390.184, 435.076 390.050, 434.965 389.500 C 434.509 387.240, 435.091 386, 436.607 386 C 437.625 386, 438.003 385.450, 437.638 384.500 C 437.277 383.558, 437.649 383, 438.638 383 C 439.622 383, 440 382.441, 439.643 381.512 C 439.313 380.652, 439.584 380.124, 440.286 380.262 C 440.954 380.393, 441.366 379.705, 441.203 378.734 C 441.039 377.763, 441.264 377.029, 441.703 377.103 C 443.749 377.447, 444.132 376.861, 442.872 375.313 C 441.662 373.825, 441.720 373.708, 443.361 374.324 C 444.795 374.862, 445.082 374.656, 444.612 373.430 C 444.275 372.554, 444.731 370.862, 445.623 369.669 C 446.854 368.024, 447.098 367.935, 446.634 369.302 C 446.273 370.366, 446.427 370.854, 447.011 370.493 C 447.555 370.157, 448 369.045, 448 368.023 C 448 365.081, 449.113 362.952, 450.275 363.670 C 450.938 364.080, 451.104 363.713, 450.714 362.696 C 450.369 361.798, 450.587 360.755, 451.198 360.378 C 451.911 359.937, 452.048 360.195, 451.580 361.095 C 451.180 361.868, 451.560 361.626, 452.426 360.559 C 454.188 358.385, 454.532 356.553, 453 357.500 C 452.450 357.840, 452 357.641, 452 357.059 C 452 356.477, 452.659 356, 453.465 356 C 455.104 356, 457.285 352.618, 456.288 351.621 C 455.935 351.268, 456.351 350.421, 457.213 349.740 C 458.074 349.058, 459.338 346.700, 460.020 344.500 C 460.702 342.300, 461.702 339.943, 462.242 339.263 C 462.782 338.582, 462.954 337.321, 462.623 336.461 C 462.233 335.444, 462.424 335.144, 463.169 335.604 C 463.930 336.075, 464.145 335.662, 463.809 334.377 C 463.530 333.312, 463.953 331.833, 464.749 331.090 C 465.950 329.967, 465.967 329.594, 464.848 328.885 C 463.767 328.200, 463.760 328.028, 464.809 328.015 C 465.529 328.007, 465.840 327.550, 465.500 327 C 465.160 326.450, 465.306 326, 465.824 326 C 466.343 326, 467.002 325.099, 467.290 323.999 C 467.578 322.898, 467.405 322.249, 466.907 322.558 C 466.408 322.866, 466 322.690, 466 322.166 C 466 321.642, 466.704 320.944, 467.563 320.614 C 468.423 320.284, 468.816 319.511, 468.435 318.895 C 468.055 318.280, 468.364 317.377, 469.122 316.888 C 470.240 316.168, 470.255 315.842, 469.203 315.162 C 468.165 314.491, 468.213 314.068, 469.443 313.047 C 470.429 312.229, 470.766 310.916, 470.382 309.386 C 470.016 307.928, 470.222 307, 470.911 307 C 471.631 307, 471.798 306.043, 471.373 304.351 C 470.943 302.638, 471.073 301.927, 471.740 302.339 C 472.309 302.691, 472.981 301.878, 473.240 300.523 C 473.498 299.174, 473.212 297.863, 472.605 297.611 C 471.807 297.280, 471.815 296.923, 472.634 296.326 C 473.257 295.872, 474.119 293.475, 474.548 291 C 475.487 285.592, 475.695 233.345, 474.790 230.500 C 474.440 229.400, 474.119 227.686, 474.077 226.691 C 474.027 225.519, 473.560 225.147, 472.750 225.633 C 471.765 226.225, 471.756 226.068, 472.708 224.890 C 473.821 223.514, 473.665 220.758, 472.262 217 C 471.955 216.175, 471.799 214.512, 471.916 213.305 C 472.033 212.097, 471.568 210.072, 470.882 208.805 C 470.196 207.537, 469.726 205.230, 469.839 203.678 C 469.979 201.735, 469.676 201.082, 468.867 201.582 C 468.131 202.037, 467.958 201.877, 468.405 201.155 C 468.797 200.520, 468.782 199.457, 468.372 198.792 C 467.961 198.128, 467.504 196.449, 467.356 195.061 C 467.208 193.673, 466.369 192.011, 465.491 191.369 C 464.612 190.727, 464.327 190.044, 464.856 189.851 C 466.021 189.426, 463.274 180.828, 461.634 179.765 C 461.010 179.361, 460.810 179.024, 461.189 179.015 C 462.191 178.993, 459.003 169.934, 456.960 167 C 455.221 164.502, 455 163.931, 455 161.941 C 455 161.359, 454.480 161.203, 453.845 161.595 C 453.159 162.020, 452.961 161.872, 453.358 161.229 C 454.201 159.867, 452 154.882, 450.865 155.583 C 450.402 155.870, 450.291 155.406, 450.618 154.552 C 450.947 153.696, 450.691 153, 450.048 153 C 449.407 153, 449.162 152.547, 449.504 151.993 C 449.847 151.439, 449.426 150.717, 448.569 150.388 C 447.712 150.059, 447.244 149.414, 447.528 148.955 C 447.812 148.495, 447.022 147.126, 445.772 145.913 C 444.522 144.699, 444.175 144.030, 445 144.427 C 445.940 144.879, 445.853 144.617, 444.766 143.725 C 443.812 142.943, 443.314 142.020, 443.659 141.675 C 444.004 141.329, 443.547 140.763, 442.643 140.417 C 441.739 140.070, 441 139.111, 441 138.286 C 441 134.909, 419.964 107.189, 417.845 107.775 C 417.299 107.926, 417.099 107.649, 417.402 107.158 C 418.148 105.951, 414.552 102.801, 413.509 103.748 C 413.052 104.162, 412.957 104.012, 413.296 103.416 C 414.065 102.064, 405.666 93.667, 404.606 94.727 C 404.181 95.152, 403.983 94.825, 404.167 94 C 404.351 93.170, 403.909 92.623, 403.176 92.775 C 402.447 92.926, 402.117 92.620, 402.441 92.095 C 403.119 90.999, 392.384 82.360, 390.860 82.775 C 390.305 82.926, 390.105 82.639, 390.415 82.138 C 390.724 81.637, 390.308 80.671, 389.489 79.991 C 388.670 79.311, 388 79.014, 388 79.330 C 388 79.646, 386.809 78.801, 385.354 77.452 C 383.899 76.104, 382.072 75, 381.295 75 C 380.518 75, 380.140 74.582, 380.456 74.072 C 380.771 73.562, 380.078 72.842, 378.916 72.473 C 377.754 72.104, 375.931 70.931, 374.865 69.865 C 373.799 68.799, 372.381 68.241, 371.714 68.624 C 371.046 69.007, 370.840 68.946, 371.256 68.488 C 372.139 67.515, 364.025 61.866, 362.816 62.613 C 362.367 62.891, 362 62.653, 362 62.085 C 362 60.896, 356.008 57.549, 355.985 58.724 C 355.976 59.151, 355.628 58.963, 355.211 58.307 C 354.366 56.978, 339.583 49.475, 333.750 47.414 C 331.034 46.454, 330 46.405, 330 47.235 C 330 47.866, 329.339 47.509, 328.532 46.441 C 327.724 45.374, 327.049 44.870, 327.032 45.321 C 327.014 45.773, 326.233 45.375, 325.295 44.438 C 324.124 43.267, 323.465 43.104, 323.194 43.919 C 322.913 44.760, 322.463 44.679, 321.649 43.642 C 320.277 41.892, 306.170 37.800, 304.599 38.695 C 303.975 39.050, 303.861 38.927, 304.335 38.410 C 304.823 37.878, 301.917 36.854, 297.335 35.944 C 291.917 34.867, 289.273 34.713, 288.765 35.444 C 288.272 36.154, 288.026 36.110, 288.015 35.311 C 287.992 33.535, 281.113 32.739, 254.500 31.437 C 246.800 31.060, 240.275 30.976, 240 31.251 M 214.969 129.250 C 214.952 134.338, 214.966 150.347, 214.999 164.828 C 215.037 181.198, 214.701 190.933, 214.111 190.569 C 213.589 190.246, 211.585 187.162, 209.657 183.715 C 203.837 173.307, 205.977 173.956, 176.239 173.572 C 161.937 173.387, 149.786 173.520, 149.234 173.868 C 148.683 174.216, 148.113 178.775, 147.968 184 C 147.535 199.535, 146.447 198, 157.893 198 C 165.992 198, 167.896 198.287, 168.393 199.582 C 168.727 200.452, 169 228.487, 169 261.882 C 169 307.774, 168.707 322.893, 167.800 323.800 C 167.039 324.561, 163.200 325, 157.300 325 L 148 325 148 338.500 L 148 352 182 352 L 216 352 216 372 L 216 392 228.750 392 L 241.500 392 241.274 369.250 C 241.150 356.738, 241.037 340.074, 241.024 332.219 L 241 317.938 228.758 318.219 L 216.517 318.500 216.002 321.500 C 215.491 324.476, 215.428 324.502, 208.243 324.794 L 201 325.088 201 285.485 C 201 263.703, 201.360 246.104, 201.799 246.376 C 202.239 246.647, 213.565 263.287, 226.969 283.352 C 241.863 305.647, 252.250 320.248, 253.678 320.899 L 256.015 321.964 255.433 356.982 L 254.851 392 267.926 392 C 277.642 392, 281.037 391.679, 281.143 390.750 C 281.872 384.389, 281.502 320.236, 280.732 319.250 C 280.052 318.380, 276.292 318, 268.378 318 C 260.379 318, 257 317.654, 257 316.834 C 257 315.141, 274.637 287.199, 279.304 281.500 C 279.754 280.950, 280.883 279.316, 281.811 277.869 C 284.494 273.688, 298.866 252.679, 300.363 250.750 C 303.804 246.314, 304 248.264, 304 286.962 L 304 324.925 294.750 325.212 L 285.500 325.500 285.500 338.500 L 285.500 351.500 321.250 351.763 L 357 352.025 357 338.513 L 357 325 351.250 324.889 C 348.087 324.828, 344.572 324.850, 343.438 324.936 C 342.305 325.023, 340.167 324.634, 338.688 324.072 L 336 323.050 336 263.216 C 336 213.185, 336.232 203.064, 337.416 201.441 C 338.589 199.833, 340.436 199.414, 348.166 199 L 357.500 198.500 357.605 186.719 C 357.662 180.240, 357.306 174.689, 356.814 174.385 C 355.964 173.860, 333.341 173.606, 311.302 173.875 C 302.193 173.987, 300.848 174.240, 298.720 176.250 C 295.316 179.465, 286.205 193.297, 283.500 199.356 C 281.351 204.172, 265.676 227.625, 257.506 238.250 C 252.786 244.389, 250.338 244.493, 245.706 238.750 C 238.399 229.689, 218.482 198.185, 219.449 197.217 C 219.696 196.970, 223.859 196.820, 228.699 196.883 C 233.540 196.946, 238.050 196.642, 238.722 196.207 C 239.639 195.614, 239.987 187.174, 240.113 162.458 C 240.205 144.331, 240.218 127.362, 240.140 124.750 L 240 120 227.500 120 L 215 120 214.969 129.250 M 255.648 121.475 C 255 123.164, 255.658 194.991, 256.327 195.661 C 256.569 195.902, 262.332 196.116, 269.133 196.136 L 281.500 196.172 281.611 159.336 C 281.671 139.076, 281.511 121.938, 281.254 121.250 C 280.517 119.280, 256.409 119.493, 255.648 121.475" stroke="none" fill="#f1de09" fill-rule="evenodd"/>
</svg>