<svg xmlns="http://www.w3.org/2000/svg" xmlns:v="https://svgstorm.com"
viewBox = "0 0 500 500"
width="500"
height="500">
<g fill="#000000" fill-opacity="0.00" stroke="None">
<path d="
M 0.00 500.00 
L 500.00 500.00
L 500.00 0.00
L 0.00 0.00
L 0.00 500.00
M 264.00 32.00 
C 267.00 32.00 270.00 32.00 273.00 32.00
C 273.50 32.00 274.00 32.00 274.00 32.00
C 276.20 32.00 278.84 31.60 281.00 32.00
C 281.35 32.07 281.74 32.79 282.00 33.00
C 286.33 36.38 294.85 33.68 299.67 36.33 C 304.50 38.98 310.69 39.28 316.02 40.98 C 321.36 42.67 326.39 44.32 331.00 47.00
C 332.27 47.44 333.66 47.52 335.00 48.00
C 415.89 76.96 476.00 167.05 476.00 251.00
C 476.73 258.55 476.91 267.50 476.00 275.00
C 475.91 279.27 475.14 282.81 475.00 287.00
C 474.95 288.53 475.38 290.52 475.00 292.00
C 474.88 292.48 474.25 293.60 474.00 294.00
C 473.45 296.67 473.46 299.32 473.00 302.00
C 471.19 312.52 468.06 322.78 465.00 333.00
C 464.33 335.23 462.80 337.17 462.00 339.00
C 453.85 364.77 436.53 394.60 415.00 413.00
C 412.29 416.30 409.95 420.36 406.00 423.00
C 404.39 424.08 405.18 423.44 404.00 425.00
C 402.29 427.27 399.30 429.18 397.00 431.00
C 369.03 453.08 336.39 474.82 301.00 480.00
C 299.69 480.19 298.31 479.84 297.00 480.00
C 295.08 480.24 292.90 481.46 291.00 482.00
C 289.24 482.50 287.24 482.72 285.00 483.00
C 282.20 483.35 278.80 484.74 276.00 485.00
C 271.84 485.39 267.07 484.10 263.00 485.00
C 262.74 485.24 262.35 485.95 262.00 486.00
C 254.14 487.13 242.86 487.13 235.00 486.00
C 234.65 485.95 234.26 485.24 234.00 485.00
C 229.62 484.03 224.48 485.42 220.00 485.00
C 216.88 484.71 213.11 483.44 210.00 483.00
C 208.07 482.73 206.44 482.41 205.00 482.00
C 197.04 480.75 188.68 478.45 181.00 476.00
C 179.31 475.46 178.25 474.53 177.00 474.00
C 101.88 452.44 39.87 380.56 26.00 306.00
C 25.51 304.27 24.45 302.50 24.00 300.00
C 22.38 290.94 21.00 281.44 21.00 272.00
C 21.00 268.67 21.00 265.33 21.00 262.00
C 20.66 258.52 20.64 254.43 21.00 251.00
C 21.00 249.34 20.92 247.66 21.00 246.00
C 21.32 239.82 22.20 233.12 23.00 227.00
C 23.21 225.41 23.87 223.00 24.00 222.00
C 24.05 220.35 23.82 218.64 24.00 217.00
C 24.20 215.13 25.57 212.48 26.00 211.00
C 35.32 165.98 59.54 122.16 96.00 91.00
C 98.00 89.00 99.87 86.82 102.00 85.00
C 104.86 82.55 108.44 80.63 111.00 78.00
C 111.79 77.19 112.05 76.65 113.00 76.00
C 131.39 63.30 151.13 50.28 173.00 44.00
C 175.18 43.13 177.43 41.71 180.00 41.00
C 186.57 39.19 193.36 37.62 200.00 36.00
C 208.13 34.02 216.78 34.83 225.00 33.00
C 225.26 32.76 225.70 32.22 226.00 32.00
C 228.06 30.48 231.26 31.00 234.00 31.00
C 243.99 31.00 254.78 31.11 264.00 32.00 Z"/>
</g>
<g fill="#2E2E16" fill-opacity="0.05" stroke="None">
<path d="
M 226.00 32.00 
C 228.55 31.63 231.42 32.00 234.00 32.00
C 233.96 32.00 234.00 31.00 234.00 31.00
C 231.26 31.00 228.06 30.48 226.00 32.00 Z"/>
</g>
<g fill="#767057" fill-opacity="0.13" stroke="None">
<path d="
M 234.00 32.00 
C 244.00 32.00 254.00 32.00 264.00 32.00
C 254.78 31.11 243.99 31.00 234.00 31.00
C 234.00 31.00 233.96 32.00 234.00 32.00 Z"/>
</g>
<g fill="#E1D487" fill-opacity="0.82" stroke="None">
<path d="
M 225.00 33.00 
C 221.76 35.99 215.81 32.68 212.00 35.00 C 208.19 37.32 203.38 35.85 200.00 36.00
C 193.36 37.62 186.57 39.19 180.00 41.00
C 177.90 41.83 175.67 43.23 173.00 44.00
C 151.13 50.28 131.39 63.30 113.00 76.00
C 113.22 75.79 110.98 78.01 111.00 78.00
C 108.44 80.63 104.86 82.55 102.00 85.00
C 100.00 87.00 98.13 89.18 96.00 91.00
C 59.54 122.16 35.32 165.98 26.00 211.00
C 25.58 213.03 24.27 215.75 24.00 217.00
C 23.82 218.64 24.05 220.35 24.00 222.00
C 23.94 224.08 23.37 225.53 23.00 227.00
C 22.20 233.12 21.32 239.82 21.00 246.00
C 21.23 254.05 21.78 263.95 21.00 272.00
C 21.00 281.44 22.38 290.94 24.00 300.00
C 24.41 301.59 25.64 304.06 26.00 306.00
C 39.87 380.56 101.88 452.44 177.00 474.00
C 178.46 474.42 179.88 475.52 181.00 476.00
C 188.68 478.45 197.04 480.75 205.00 482.00
C 206.85 482.29 208.63 482.64 210.00 483.00
C 213.11 483.44 216.88 484.71 220.00 485.00
C 223.41 484.99 230.73 481.98 234.00 485.00
C 234.26 485.24 234.65 485.95 235.00 486.00
C 242.02 483.90 255.04 483.91 262.00 486.00
C 262.35 485.95 262.74 485.24 263.00 485.00
C 266.15 482.10 272.89 484.99 276.00 485.00
C 278.80 484.74 282.20 483.35 285.00 483.00
C 286.59 482.63 288.96 482.34 291.00 482.00
C 292.90 481.46 295.08 480.24 297.00 480.00
C 298.48 479.60 299.99 480.06 301.00 480.00
C 336.39 474.82 369.03 453.08 397.00 431.00
C 399.15 429.02 402.09 426.90 404.00 425.00
C 405.18 423.44 404.39 424.08 406.00 423.00
C 408.82 419.94 411.50 415.99 415.00 413.00
C 436.53 394.60 453.85 364.77 462.00 339.00
C 462.73 336.71 464.23 334.80 465.00 333.00
C 468.06 322.78 471.19 312.52 473.00 302.00
C 473.08 298.95 471.94 297.25 474.00 294.00
C 474.25 293.60 474.88 292.48 475.00 292.00
C 475.02 290.76 474.79 288.41 475.00 287.00
C 475.14 282.81 475.91 279.27 476.00 275.00
C 476.16 267.01 476.00 258.99 476.00 251.00
C 476.00 167.05 415.89 76.96 335.00 48.00
C 333.23 47.67 333.17 48.26 331.00 47.00
C 326.39 44.32 321.36 42.67 316.02 40.98 C 310.69 39.28 304.50 38.98 299.67 36.33 C 294.85 33.68 286.33 36.38 282.00 33.00
C 280.27 33.01 273.90 36.21 273.00 32.00
C 270.00 32.00 267.00 32.00 264.00 32.00
C 254.00 32.00 244.00 32.00 234.00 32.00
C 231.42 32.00 228.55 31.63 226.00 32.00
C 225.70 32.22 225.26 32.76 225.00 33.00
M 456.00 172.00 
C 474.08 200.03 475.09 245.47 474.00 279.00 C 472.91 312.53 457.59 344.28 442.25 372.25 C 426.90 400.21 408.28 418.31 382.75 438.75 C 357.23 459.20 328.25 469.12 296.33 477.33 C 264.41 485.54 216.74 483.61 185.93 474.07 C 155.12 464.53 131.81 452.80 106.25 431.75 C 80.69 410.70 65.17 392.19 49.68 363.32 C 34.19 334.45 24.00 299.61 24.00 265.00
C 24.00 237.04 27.70 203.37 37.98 178.98 C 48.25 154.58 58.81 136.43 74.92 115.92 C 91.03 95.40 106.76 82.89 128.07 69.07 C 149.39 55.26 172.44 45.66 198.22 39.22 C 224.00 32.79 263.23 32.47 289.67 37.33 C 316.11 42.19 339.60 52.19 362.23 64.77 C 384.86 77.35 398.33 91.80 417.25 109.75 C 436.16 127.70 442.55 151.16 456.00 172.00 Z"/>
</g>
<g fill="#C3BA8A" fill-opacity="0.62" stroke="None">
<path d="
M 282.00 33.00 
C 281.74 32.79 281.35 32.07 281.00 32.00
C 278.63 32.71 276.40 33.77 274.00 32.00
C 274.00 32.00 273.50 32.00 273.00 32.00
C 273.90 36.21 280.27 33.01 282.00 33.00 Z"/>
</g>
<g fill="#524935" fill-opacity="0.06" stroke="None">
<path d="
M 281.00 32.00 
C 278.84 31.60 276.20 32.00 274.00 32.00
C 276.40 33.77 278.63 32.71 281.00 32.00 Z"/>
</g>
<g fill="#C5BE99" fill-opacity="0.60" stroke="None">
<path d="
M 200.00 36.00 
C 203.38 35.85 208.19 37.32 212.00 35.00 C 215.81 32.68 221.76 35.99 225.00 33.00
C 216.78 34.83 208.13 34.02 200.00 36.00 Z"/>
</g>
<g fill="#EEBA19" fill-opacity="1.00" stroke="None">
<path d="
M 24.00 265.00 
C 25.03 275.61 25.54 289.44 30.00 297.00
C 31.50 294.06 28.57 290.43 31.00 288.00
C 39.27 323.43 50.09 360.70 75.00 389.00
C 64.86 375.09 55.56 359.98 50.00 344.00
C 85.63 423.96 169.98 475.01 257.00 472.00 C 344.02 468.99 421.69 412.54 452.00 331.00
C 449.95 346.38 438.61 362.32 431.00 377.00
C 461.61 337.45 467.77 285.51 466.00 235.00
C 466.68 238.68 468.97 241.56 470.00 237.00
C 465.65 230.66 469.33 221.52 468.00 214.00 C 466.67 206.48 465.15 195.73 460.00 192.00
C 462.14 183.39 456.08 179.16 456.00 172.00
C 442.55 151.16 436.16 127.70 417.25 109.75 C 398.33 91.80 384.86 77.35 362.23 64.77 C 339.60 52.19 316.11 42.19 289.67 37.33 C 263.23 32.47 224.00 32.79 198.22 39.22 C 172.44 45.66 149.39 55.26 128.07 69.07 C 106.76 82.89 91.03 95.40 74.92 115.92 C 58.81 136.43 48.25 154.58 37.98 178.98 C 27.70 203.37 24.00 237.04 24.00 265.00
M 464.00 264.00 
C 457.01 263.00 455.62 252.08 449.00 250.00
C 444.21 257.55 439.72 265.06 446.00 273.00
C 431.39 269.61 453.56 246.85 441.00 248.00 C 428.44 249.15 434.01 270.91 432.02 280.02 C 430.04 289.13 429.31 302.27 425.67 311.67 C 422.03 321.07 417.85 331.69 413.68 340.68 C 409.51 349.67 403.51 358.01 397.75 365.75 C 391.99 373.49 387.17 381.39 379.75 387.75 C 372.34 394.11 365.81 400.80 357.75 406.75 C 349.69 412.71 340.53 416.65 331.31 421.31 C 322.08 425.96 313.26 429.51 302.98 432.98 C 292.69 436.44 280.27 438.55 269.00 440.00 C 257.73 441.45 243.44 442.83 231.98 441.02 C 220.51 439.22 208.43 437.49 197.98 434.02 C 187.52 430.56 177.02 427.98 167.77 423.23 C 158.52 418.48 150.67 414.00 142.32 408.68 C 133.97 403.36 127.63 396.17 120.25 389.75 C 112.86 383.34 106.27 376.05 100.75 368.25 C 95.23 360.45 89.83 352.36 85.23 343.77 C 80.63 335.19 76.32 324.07 73.08 314.92 C 69.83 305.78 69.95 288.94 54.98 294.98
C 54.32 288.39 64.57 290.90 68.00 294.00
C 67.10 284.90 62.07 273.74 65.00 264.00 C 67.93 254.26 56.79 240.95 51.00 252.00
C 44.57 248.09 34.78 262.44 37.00 270.00
C 35.47 264.68 34.53 267.32 33.00 271.00
C 31.66 211.72 51.48 154.31 92.25 111.25 C 133.03 68.20 186.32 45.68 245.00 44.00 C 303.68 42.32 358.92 65.71 400.75 107.25 C 442.58 148.79 464.85 204.98 464.00 264.00
M 59.00 249.00 
C 66.74 251.64 59.99 261.85 63.00 267.00 C 66.01 272.15 56.14 281.11 53.26 276.74 C 50.37 272.38 62.24 264.78 57.67 260.33 C 53.10 255.88 51.58 246.47 59.00 249.00
M 445.00 250.00 
C 439.97 258.18 438.32 267.67 444.00 276.00
C 430.13 278.71 431.14 244.66 445.00 250.00
M 49.00 251.00 
C 56.55 255.47 56.77 276.70 45.26 272.74 C 33.74 268.78 40.47 253.72 49.00 251.00
M 449.00 273.00 
C 442.36 267.02 444.11 258.46 450.00 253.00
C 460.31 257.65 460.23 269.45 449.00 273.00
M 63.00 295.00 
C 70.68 297.36 67.09 313.19 58.78 309.22 C 50.47 305.25 53.96 292.22 63.00 295.00
M 441.00 295.00 
C 448.34 297.86 441.63 314.46 433.78 310.22 C 425.93 305.98 431.38 291.25 441.00 295.00
M 72.00 326.00 
C 80.92 328.39 79.31 344.99 70.00 342.00 C 60.69 339.01 62.01 323.32 72.00 326.00
M 431.00 326.00 
C 438.15 329.49 429.38 346.72 421.78 341.22 C 414.17 335.73 423.15 322.17 431.00 326.00
M 88.00 356.00 
C 96.86 358.38 95.24 375.19 85.33 372.67 C 75.41 370.15 77.19 353.10 88.00 356.00
M 416.00 356.00 
C 424.46 359.30 414.68 377.23 406.33 371.67 C 397.98 366.11 407.77 352.79 416.00 356.00
M 107.00 382.00 
C 117.23 384.16 115.99 401.44 104.78 398.22 C 93.57 395.01 94.99 379.46 107.00 382.00
M 398.00 382.00 
C 406.43 386.36 394.40 403.97 386.33 397.67 C 378.26 391.37 389.30 377.51 398.00 382.00
M 121.00 393.00 
C 128.51 393.09 131.41 406.85 124.00 406.00 C 116.58 405.15 113.60 392.91 121.00 393.00
M 380.00 394.00 
C 384.08 396.80 375.41 410.14 369.93 406.07 C 364.45 402.00 373.47 389.52 380.00 394.00
M 137.00 412.00 
C 142.48 406.10 157.61 418.62 153.67 423.67 C 149.73 428.72 140.58 412.42 137.00 412.00
M 348.00 425.00 
C 338.81 423.34 345.84 408.68 356.00 411.00 C 366.17 413.33 348.58 417.39 348.00 425.00
M 140.00 418.00 
C 149.92 420.46 149.34 435.47 138.78 432.22 C 128.21 428.97 127.06 414.79 140.00 418.00
M 366.00 418.00 
C 372.17 422.36 359.15 438.07 352.31 431.69 C 345.46 425.32 358.93 413.00 366.00 418.00
M 333.00 430.00 
C 330.78 432.88 331.83 436.18 336.00 437.00
C 341.34 450.54 312.78 457.09 317.00 442.00
C 302.26 434.58 327.57 417.44 333.00 430.00
M 183.00 439.00 
C 176.85 437.36 171.85 432.25 165.00 432.00
C 166.30 419.80 189.10 428.90 183.00 439.00
M 182.00 448.00 
C 173.86 455.17 158.39 449.14 162.00 437.00
C 169.77 432.19 181.69 438.56 182.00 448.00
M 212.00 449.00 
C 221.43 457.96 207.74 465.32 199.78 460.22 C 191.82 455.13 194.44 445.95 197.92 438.92 C 201.41 431.89 224.13 441.97 212.00 449.00
M 284.00 446.00 
C 281.80 438.92 293.78 434.27 298.25 439.75 C 302.71 445.24 287.84 444.28 284.00 446.00
M 262.00 443.00 
C 266.27 438.48 279.66 441.06 277.00 448.00 C 274.34 454.95 260.09 449.13 262.00 443.00
M 234.00 443.00 
C 236.88 448.35 225.62 453.09 222.31 447.69 C 218.99 442.29 230.23 440.38 234.00 443.00
M 262.00 454.00 
C 253.16 447.65 244.03 449.36 235.00 454.00
C 235.67 439.33 263.09 438.63 262.00 454.00
M 297.00 447.00 
C 305.47 449.27 298.24 463.07 289.78 459.22 C 281.32 455.36 288.00 444.58 297.00 447.00
M 251.00 452.00 
C 257.24 452.96 262.34 459.88 255.77 463.77 C 249.20 467.66 245.86 469.06 240.25 462.75 C 234.64 456.45 245.47 451.15 251.00 452.00 Z"/>
</g>
<g fill="#69654B" fill-opacity="0.13" stroke="None">
<path d="
M 173.00 44.00 
C 175.67 43.23 177.90 41.83 180.00 41.00
C 177.43 41.71 175.18 43.13 173.00 44.00 Z"/>
</g>
<g fill="#CE9609" fill-opacity="1.00" stroke="None">
<path d="
M 464.00 264.00 
C 464.85 204.98 442.58 148.79 400.75 107.25 C 358.92 65.71 303.68 42.32 245.00 44.00 C 186.32 45.68 133.03 68.20 92.25 111.25 C 51.48 154.31 31.66 211.72 33.00 271.00
C 34.53 267.32 35.47 264.68 37.00 270.00
C 34.78 262.44 44.57 248.09 51.00 252.00
C 56.79 240.95 67.93 254.26 65.00 264.00 C 62.07 273.74 67.10 284.90 68.00 294.00
C 64.57 290.90 54.32 288.39 54.00 295.00
C 69.95 288.94 69.83 305.78 73.08 314.92 C 76.32 324.07 80.63 335.19 85.23 343.77 C 89.83 352.36 95.23 360.45 100.75 368.25 C 106.27 376.05 112.86 383.34 120.25 389.75 C 127.63 396.17 133.97 403.36 142.32 408.68 C 150.67 414.00 158.52 418.48 167.77 423.23 C 177.02 427.98 187.52 430.56 197.98 434.02 C 208.43 437.49 220.51 439.22 231.98 441.02 C 243.44 442.83 257.73 441.45 269.00 440.00 C 280.27 438.55 292.69 436.44 302.98 432.98 C 313.26 429.51 322.08 425.96 331.31 421.31 C 340.53 416.65 349.69 412.71 357.75 406.75 C 365.81 400.80 372.34 394.11 379.75 387.75 C 387.17 381.39 391.99 373.49 397.75 365.75 C 403.51 358.01 409.51 349.67 413.68 340.68 C 417.85 331.69 422.03 321.07 425.67 311.67 C 429.31 302.27 430.04 289.13 432.02 280.02 C 434.01 270.91 428.44 249.15 441.00 248.00 C 453.56 246.85 431.39 269.61 446.00 273.00
C 439.72 265.06 444.21 257.55 449.00 250.00
C 455.62 252.08 457.01 263.00 464.00 264.00
M 237.00 59.00 
C 242.64 54.53 245.84 49.35 253.23 52.77 C 260.62 56.19 262.59 61.93 254.75 65.75 C 246.92 69.58 240.41 65.15 237.00 59.00
M 200.00 72.00 
C 191.20 69.37 197.91 60.61 203.00 59.00
C 210.92 56.50 219.58 63.32 212.00 71.00
C 219.40 71.87 215.29 80.65 209.97 81.97 C 204.66 83.30 197.31 82.33 197.00 75.00
C 198.90 73.41 203.64 74.61 200.00 72.00
M 296.00 59.00 
C 306.23 62.10 301.66 76.84 290.78 72.22 C 279.90 67.60 283.81 55.30 296.00 59.00
M 262.00 65.00 
C 263.32 76.13 253.06 75.57 245.33 76.67 C 237.60 77.77 231.43 61.18 239.70 65.31 C 247.96 69.43 253.64 69.37 262.00 65.00
M 167.00 71.00 
C 167.40 70.80 168.00 71.00 168.00 71.00
C 172.84 64.68 185.15 72.18 181.00 80.00
C 193.00 86.56 172.90 99.64 166.00 91.00
C 164.78 87.34 167.89 86.28 170.00 85.00
C 160.93 86.82 159.16 73.78 167.00 71.00
M 235.00 70.00 
C 238.42 75.88 227.81 83.49 222.78 78.22 C 217.75 72.95 230.01 67.26 235.00 70.00
M 328.00 70.00 
C 338.42 72.58 336.19 87.07 324.93 83.07 C 313.66 79.08 316.49 67.15 328.00 70.00
M 264.00 71.00 
C 268.30 69.17 278.08 72.12 273.74 76.74 C 269.40 81.37 261.83 75.99 264.00 71.00
M 286.00 72.00 
C 288.55 71.68 292.01 76.58 296.00 75.00 C 299.99 73.42 299.13 81.43 295.75 81.75 C 292.38 82.08 287.93 81.94 285.26 79.74 C 282.58 77.55 281.75 72.53 286.00 72.00
M 392.00 156.00 
C 409.26 179.21 421.36 206.37 425.00 235.00
C 415.02 236.50 402.29 236.14 402.07 224.93 C 401.86 213.71 395.15 209.44 394.00 199.00
C 402.79 207.66 402.99 221.62 408.00 232.00
C 403.49 193.85 380.58 161.52 349.30 135.70 C 318.02 109.88 266.52 98.20 225.99 105.99 C 185.46 113.79 154.13 131.95 127.75 164.75 C 101.37 197.56 88.56 243.01 94.00 286.00
C 90.22 219.36 124.93 152.15 186.22 123.22 C 247.52 94.29 329.82 106.68 371.00 164.00
C 328.36 111.84 251.16 95.96 190.93 122.93 C 130.69 149.90 94.11 213.60 100.00 280.00
C 102.26 269.52 100.78 254.59 103.00 244.00 C 105.22 233.41 108.43 223.40 111.97 213.97 C 115.51 204.54 118.48 195.27 124.25 187.25 C 130.03 179.24 134.60 172.23 140.75 164.75 C 146.91 157.28 153.85 152.01 161.08 146.08 C 168.31 140.15 176.40 135.08 184.70 130.70 C 192.99 126.31 203.57 121.20 213.02 120.02 C 222.48 118.85 245.62 113.38 242.00 129.00
C 246.00 129.00 250.00 129.00 254.00 129.00
C 249.88 112.92 272.60 119.88 281.00 120.00
C 281.30 120.22 281.89 120.65 282.00 121.00
C 288.81 126.89 302.63 125.28 310.23 130.77 C 317.82 136.26 327.89 138.58 335.08 144.92 C 342.28 151.26 350.01 155.06 356.25 162.75 C 362.49 170.45 367.80 175.12 373.77 183.23 C 379.74 191.34 382.60 199.59 386.93 209.07 C 391.25 218.55 392.63 228.52 395.98 239.02 C 399.32 249.53 421.16 242.46 428.00 246.00
C 413.45 252.83 393.04 248.38 391.67 232.33 C 390.30 216.28 381.96 206.01 376.25 192.75 C 370.53 179.50 361.86 172.99 352.75 162.25 C 343.64 151.50 332.90 145.30 321.25 138.75 C 309.61 132.19 295.76 123.57 282.00 125.00
C 282.00 125.50 282.00 126.50 282.00 127.00
C 286.76 131.56 298.81 130.27 304.68 134.32 C 310.55 138.37 318.16 140.83 324.23 144.77 C 330.30 148.71 336.16 152.58 341.75 157.25 C 347.34 161.93 352.39 166.38 356.75 172.25 C 361.12 178.11 366.34 182.69 369.92 189.08 C 373.50 195.47 377.65 201.45 380.77 208.23 C 383.89 215.01 385.77 224.07 387.98 231.02 C 390.18 237.98 389.98 247.50 398.70 250.30 C 407.42 253.11 419.71 249.65 429.00 251.00
C 424.31 257.02 410.83 253.10 403.00 254.00 C 395.17 254.90 388.54 246.92 387.00 240.00 C 385.46 233.08 383.40 223.19 380.68 216.32 C 377.96 209.46 375.17 201.95 371.25 195.75 C 367.32 189.56 363.42 183.55 359.00 178.00
C 361.94 190.99 367.56 199.30 374.77 211.23 C 381.98 223.16 380.98 235.50 387.75 248.25 C 394.52 261.00 416.57 256.53 429.00 257.00
C 426.01 265.38 411.88 259.07 404.00 261.00 C 396.12 262.93 389.94 256.45 385.25 250.75 C 380.56 245.05 380.87 235.64 378.22 228.78 C 375.58 221.92 373.61 214.15 370.68 207.32 C 367.75 200.49 362.97 194.93 359.00 189.00
C 358.09 197.35 363.52 202.89 367.30 209.70 C 371.09 216.50 373.34 223.60 375.98 231.02 C 378.61 238.45 378.48 245.69 383.75 252.25 C 389.03 258.81 394.44 263.54 403.00 263.00 C 411.56 262.46 425.43 260.37 429.00 267.00
C 415.05 266.00 398.87 270.50 388.08 261.92 C 377.29 253.33 375.75 242.96 373.07 230.93 C 370.39 218.89 363.82 209.25 358.00 199.00
C 356.99 211.15 368.13 218.96 370.32 231.68 C 372.52 244.39 374.63 255.17 386.25 263.75 C 397.86 272.33 414.45 268.19 429.00 269.00
C 426.51 274.90 413.48 271.20 407.00 272.00 C 400.52 272.80 390.46 272.88 386.25 267.75 C 382.04 262.62 377.86 260.49 373.75 255.25 C 369.65 250.00 369.79 242.28 368.02 235.98 C 366.26 229.67 363.84 223.78 361.23 217.77 C 358.62 211.76 355.89 205.79 353.00 200.00
C 351.36 200.13 349.65 200.00 348.00 200.00
C 351.96 201.81 352.72 209.64 355.92 213.08 C 359.13 216.51 360.44 223.02 362.33 227.67 C 364.21 232.33 365.67 238.77 366.98 244.02 C 368.28 249.28 368.23 255.54 373.08 258.92 C 377.93 262.30 379.51 265.11 383.92 269.08 C 388.33 273.06 392.68 275.21 400.00 274.00 C 407.32 272.79 412.71 275.21 421.00 274.00 C 429.29 272.79 427.78 277.91 428.00 283.00
C 414.49 284.42 399.49 284.80 386.00 283.00
C 390.03 286.99 398.35 284.45 405.00 285.00 C 411.65 285.55 420.18 284.59 427.00 285.00
C 426.29 292.80 417.11 289.51 411.00 290.00 C 404.89 290.49 396.33 289.63 390.00 290.00
C 401.09 292.32 414.16 290.34 426.00 291.00
C 420.63 313.43 410.92 340.86 394.74 361.74 C 378.57 382.62 363.78 399.99 339.92 412.92 C 316.07 425.86 286.50 437.36 258.00 438.00 C 229.49 438.63 194.22 432.89 169.98 420.03 C 145.73 407.16 129.78 393.17 111.25 372.75 C 92.72 352.33 81.53 329.26 74.67 302.33 C 67.81 275.39 69.82 233.79 78.99 207.99 C 88.17 182.20 100.92 162.17 118.75 141.75 C 136.58 121.34 157.89 107.74 181.00 97.00
C 167.47 97.27 156.37 110.78 144.75 116.75 C 133.13 122.72 124.99 134.17 115.70 143.70 C 106.40 153.23 99.17 164.92 92.22 176.22 C 85.27 187.53 79.50 202.07 75.00 215.00
C 80.53 173.23 112.38 134.98 147.00 109.00
C 142.27 111.98 133.22 109.88 136.00 103.00
C 115.63 98.43 149.75 72.41 149.00 94.00
C 159.16 89.11 154.66 106.58 148.00 109.00
C 153.90 104.49 159.62 101.74 166.23 98.23 C 172.84 94.72 180.02 93.32 187.08 90.08 C 194.13 86.83 202.32 85.17 210.02 83.02 C 217.73 80.88 226.74 79.79 235.01 79.01 C 243.27 78.22 254.52 76.95 263.00 78.00 C 271.48 79.05 280.37 80.59 288.22 82.78 C 296.08 84.96 303.96 85.61 311.07 88.93 C 318.18 92.24 324.51 95.94 331.69 98.31 C 338.88 100.67 343.32 105.99 349.75 109.25 C 356.18 112.52 360.33 117.64 366.08 121.92 C 371.84 126.20 376.47 131.24 381.75 136.25 C 387.04 141.26 390.04 146.95 394.92 152.08 C 399.80 157.22 402.13 166.44 406.00 169.00
C 405.32 171.30 408.75 174.36 406.00 176.00
C 403.15 168.65 397.88 161.80 392.00 156.00
M 330.00 88.00 
C 327.18 98.26 311.50 89.79 314.00 81.00
C 319.78 81.94 324.13 87.03 330.00 88.00
M 358.00 86.00 
C 367.14 87.60 370.56 102.40 359.78 101.22 C 349.00 100.04 346.92 84.07 358.00 86.00
M 347.00 94.00 
C 349.51 94.69 350.10 102.20 354.75 102.25 C 359.39 102.31 362.94 107.68 356.92 108.92 C 350.91 110.17 349.91 106.17 345.77 104.23 C 341.63 102.29 341.66 92.53 347.00 94.00
M 128.00 113.00 
C 134.39 115.60 125.92 127.06 120.33 123.67 C 114.74 120.28 125.06 111.80 128.00 113.00
M 373.00 113.00 
C 377.96 114.06 381.25 124.65 373.99 123.99 C 366.73 123.33 366.20 111.55 373.00 113.00
M 369.00 170.00 
C 351.04 152.62 336.72 138.57 313.31 127.69 C 289.89 116.82 255.18 114.39 229.00 116.00
C 281.65 106.34 337.43 126.59 369.00 170.00
M 111.00 121.00 
C 120.11 123.31 111.95 142.11 103.00 138.00 C 94.05 133.89 101.73 118.65 111.00 121.00
M 392.00 121.00 
C 401.73 123.61 400.80 140.50 390.00 138.00 C 379.20 135.50 381.24 118.11 392.00 121.00
M 99.00 144.00 
C 104.65 146.10 99.68 159.11 92.78 156.22 C 85.87 153.32 91.53 141.22 99.00 144.00
M 396.00 148.00 
C 399.14 141.99 408.30 144.81 407.97 152.03 C 407.65 159.24 395.20 154.45 396.00 148.00
M 85.00 161.00 
C 93.71 164.14 86.45 181.64 77.33 177.67 C 68.20 173.70 76.01 157.76 85.00 161.00
M 419.00 162.00 
C 426.92 164.79 423.12 180.88 414.78 176.22 C 406.44 171.57 409.42 158.63 419.00 162.00
M 71.00 187.00 
C 80.80 188.22 77.60 207.86 67.00 206.00 C 56.39 204.14 60.84 185.74 71.00 187.00
M 432.00 188.00 
C 440.88 191.33 436.73 209.96 426.93 205.07 C 417.12 200.19 421.04 183.90 432.00 188.00
M 392.00 206.00 
C 396.32 215.51 398.51 221.29 400.98 232.02 C 403.44 242.76 419.95 237.37 428.00 240.00
C 421.87 242.61 401.04 245.83 398.23 235.77 C 395.42 225.71 392.03 215.39 392.00 206.00
M 63.00 218.00 
C 70.88 220.27 65.95 237.12 58.00 234.00 C 50.05 230.87 54.17 215.46 63.00 218.00
M 440.00 218.00 
C 447.51 220.56 444.09 237.01 436.00 234.00 C 427.91 230.99 431.56 215.12 440.00 218.00 Z"/>
</g>
<g fill="#C9B88D" fill-opacity="0.64" stroke="None">
<path d="
M 335.00 48.00 
C 333.66 47.52 332.27 47.44 331.00 47.00
C 333.17 48.26 333.23 47.67 335.00 48.00 Z"/>
</g>
<g fill="#F8DD31" fill-opacity="1.00" stroke="None">
<path d="
M 237.00 59.00 
C 240.41 65.15 246.92 69.58 254.75 65.75 C 262.59 61.93 260.62 56.19 253.23 52.77 C 245.84 49.35 242.64 54.53 237.00 59.00 Z"/>
</g>
<g fill="#D8AF18" fill-opacity="1.00" stroke="None">
<path d="
M 203.00 59.00 
C 218.06 56.86 213.21 75.95 200.00 72.00
C 203.64 74.61 198.90 73.41 197.00 75.00
C 197.31 82.33 204.66 83.30 209.97 81.97 C 215.29 80.65 219.40 71.87 212.00 71.00
C 219.58 63.32 210.92 56.50 203.00 59.00
M 214.00 73.00 
C 216.59 81.98 199.02 85.78 199.00 76.00
C 204.13 75.51 208.97 73.96 214.00 73.00 Z"/>
</g>
<g fill="#FADE33" fill-opacity="1.00" stroke="None">
<path d="
M 200.00 72.00 
C 213.21 75.95 218.06 56.86 203.00 59.00
C 197.91 60.61 191.20 69.37 200.00 72.00 Z"/>
</g>
<g fill="#F7DC31" fill-opacity="1.00" stroke="None">
<path d="
M 296.00 59.00 
C 283.81 55.30 279.90 67.60 290.78 72.22 C 301.66 76.84 306.23 62.10 296.00 59.00 Z"/>
</g>
<g fill="#F1CF2D" fill-opacity="1.00" stroke="None">
<path d="
M 262.00 65.00 
C 253.64 69.37 247.96 69.43 239.70 65.31 C 231.43 61.18 237.60 77.77 245.33 76.67 C 253.06 75.57 263.32 76.13 262.00 65.00 Z"/>
</g>
<g fill="#D7AE16" fill-opacity="1.00" stroke="None">
<path d="
M 168.00 71.00 
C 176.79 67.88 185.39 76.12 174.92 81.92 C 164.44 87.71 161.34 79.10 167.00 71.00
C 159.16 73.78 160.93 86.82 170.00 85.00
C 167.89 86.28 164.78 87.34 166.00 91.00
C 172.90 99.64 193.00 86.56 181.00 80.00
C 185.15 72.18 172.84 64.68 168.00 71.00
M 183.00 82.00 
C 185.87 90.95 170.65 96.22 167.00 88.00
C 172.58 86.63 177.33 82.90 183.00 82.00 Z"/>
</g>
<g fill="#FBDE32" fill-opacity="1.00" stroke="None">
<path d="
M 168.00 71.00 
C 168.00 71.00 167.40 70.80 167.00 71.00
C 161.34 79.10 164.44 87.71 174.92 81.92 C 185.39 76.12 176.79 67.88 168.00 71.00 Z"/>
</g>
<g fill="#F0CC2E" fill-opacity="1.00" stroke="None">
<path d="
M 235.00 70.00 
C 230.01 67.26 217.75 72.95 222.78 78.22 C 227.81 83.49 238.42 75.88 235.00 70.00 Z"/>
</g>
<g fill="#F8DB31" fill-opacity="1.00" stroke="None">
<path d="
M 328.00 70.00 
C 316.49 67.15 313.66 79.08 324.93 83.07 C 336.19 87.07 338.42 72.58 328.00 70.00 Z"/>
</g>
<g fill="#F9D735" fill-opacity="1.00" stroke="None">
<path d="
M 264.00 71.00 
C 261.83 75.99 269.40 81.37 273.74 76.74 C 278.08 72.12 268.30 69.17 264.00 71.00 Z"/>
</g>
<g fill="#F9D632" fill-opacity="1.00" stroke="None">
<path d="
M 286.00 72.00 
C 281.75 72.53 282.58 77.55 285.26 79.74 C 287.93 81.94 292.38 82.08 295.75 81.75 C 299.13 81.43 299.99 73.42 296.00 75.00 C 292.01 76.58 288.55 71.68 286.00 72.00 Z"/>
</g>
<g fill="#FCDC35" fill-opacity="1.00" stroke="None">
<path d="
M 214.00 73.00 
C 208.97 73.96 204.13 75.51 199.00 76.00
C 199.02 85.78 216.59 81.98 214.00 73.00 Z"/>
</g>
<g fill="#B5AA79" fill-opacity="0.43" stroke="None">
<path d="
M 111.00 78.00 
C 110.98 78.01 113.22 75.79 113.00 76.00
C 112.05 76.65 111.79 77.19 111.00 78.00 Z"/>
</g>
<g fill="#BC8102" fill-opacity="1.00" stroke="None">
<path d="
M 148.00 109.00 
C 147.68 109.24 147.00 109.00 147.00 109.00
C 112.38 134.98 80.53 173.23 75.00 215.00
C 79.50 202.07 85.27 187.53 92.22 176.22 C 99.17 164.92 106.40 153.23 115.70 143.70 C 124.99 134.17 133.13 122.72 144.75 116.75 C 156.37 110.78 167.47 97.27 181.00 97.00
C 181.50 96.99 182.00 97.00 182.00 97.00
C 193.00 88.18 207.49 88.76 221.00 85.00 C 234.51 81.24 253.36 81.42 267.00 84.00
C 292.79 88.89 318.01 95.22 340.22 108.78 C 362.44 122.34 374.05 138.05 392.00 156.00
C 397.88 161.80 403.15 168.65 406.00 176.00
C 408.75 174.36 405.32 171.30 406.00 169.00
C 402.13 166.44 399.80 157.22 394.92 152.08 C 390.04 146.95 387.04 141.26 381.75 136.25 C 376.47 131.24 371.84 126.20 366.08 121.92 C 360.33 117.64 356.18 112.52 349.75 109.25 C 343.32 105.99 338.88 100.67 331.69 98.31 C 324.51 95.94 318.18 92.24 311.07 88.93 C 303.96 85.61 296.08 84.96 288.22 82.78 C 280.37 80.59 271.48 79.05 263.00 78.00 C 254.52 76.95 243.27 78.22 235.01 79.01 C 226.74 79.79 217.73 80.88 210.02 83.02 C 202.32 85.17 194.13 86.83 187.08 90.08 C 180.02 93.32 172.84 94.72 166.23 98.23 C 159.62 101.74 153.90 104.49 148.00 109.00 Z"/>
</g>
<g fill="#FAD632" fill-opacity="1.00" stroke="None">
<path d="
M 330.00 88.00 
C 324.13 87.03 319.78 81.94 314.00 81.00
C 311.50 89.79 327.18 98.26 330.00 88.00 Z"/>
</g>
<g fill="#FBD935" fill-opacity="1.00" stroke="None">
<path d="
M 183.00 82.00 
C 177.33 82.90 172.58 86.63 167.00 88.00
C 170.65 96.22 185.87 90.95 183.00 82.00 Z"/>
</g>
<g fill="#CD920B" fill-opacity="1.00" stroke="None">
<path d="
M 182.00 97.00 
C 183.24 98.19 170.42 103.76 166.92 105.92 C 163.43 108.09 155.74 113.58 151.25 116.25 C 146.77 118.93 140.76 123.58 136.25 127.25 C 131.75 130.92 127.88 136.21 123.25 140.25 C 118.62 144.29 114.74 149.17 111.23 154.23 C 107.72 159.29 104.03 164.23 100.70 169.70 C 97.36 175.16 93.80 179.94 91.08 186.08 C 88.35 192.21 86.27 198.39 84.02 205.02 C 81.78 211.66 79.15 217.60 78.01 225.01 C 76.87 232.41 75.00 239.82 75.00 248.00 C 75.00 256.18 75.00 266.62 75.00 275.00
C 75.86 256.21 79.36 231.65 83.98 213.98 C 88.59 196.30 97.48 181.38 107.25 167.25 C 117.03 153.13 126.43 140.69 139.75 129.75 C 153.07 118.81 168.61 108.49 184.00 106.00
C 113.95 135.53 69.02 214.24 83.00 290.00
C 78.40 233.97 96.14 180.47 137.75 141.75 C 179.36 103.03 237.64 88.08 294.00 101.00
C 269.37 97.88 234.84 96.35 210.78 103.78 C 186.71 111.20 166.63 118.51 147.77 134.77 C 128.91 151.03 117.40 165.88 106.08 187.08 C 94.75 208.27 85.29 236.56 88.00 261.00
C 92.99 179.53 155.91 111.95 237.00 103.00 C 318.09 94.05 397.75 152.24 414.00 232.00
C 408.50 179.29 365.89 130.50 317.00 109.00
C 328.87 109.79 342.73 118.91 352.75 127.25 C 362.77 135.58 373.86 144.04 382.25 154.75 C 390.64 165.46 398.21 176.87 404.92 189.08 C 411.62 201.30 415.95 218.29 419.00 232.00
C 422.82 224.07 416.42 211.10 413.23 201.77 C 410.04 192.44 405.36 182.18 400.22 173.78 C 395.09 165.38 389.06 158.34 383.23 150.77 C 377.40 143.19 370.30 136.47 362.92 130.08 C 355.54 123.69 348.46 118.18 339.77 113.23 C 331.08 108.28 322.71 103.08 312.77 99.23 C 302.83 95.38 292.84 92.78 281.78 90.22 C 270.72 87.66 255.03 87.82 243.00 88.00
C 251.39 87.35 259.19 85.67 267.00 84.00
C 253.36 81.42 234.51 81.24 221.00 85.00 C 207.49 88.76 193.00 88.18 182.00 97.00 Z"/>
</g>
<g fill="#E9B620" fill-opacity="1.00" stroke="None">
<path d="
M 182.00 97.00 
C 182.00 97.00 181.50 96.99 181.00 97.00
C 157.89 107.74 136.58 121.34 118.75 141.75 C 100.92 162.17 88.17 182.20 78.99 207.99 C 69.82 233.79 67.81 275.39 74.67 302.33 C 81.53 329.26 92.72 352.33 111.25 372.75 C 129.78 393.17 145.73 407.16 169.98 420.03 C 194.22 432.89 229.49 438.63 258.00 438.00 C 286.50 437.36 316.07 425.86 339.92 412.92 C 363.78 399.99 378.57 382.62 394.74 361.74 C 410.92 340.86 420.63 313.43 426.00 291.00
C 414.16 290.34 401.09 292.32 390.00 290.00
C 396.33 289.63 404.89 290.49 411.00 290.00 C 417.11 289.51 426.29 292.80 427.00 285.00
C 420.18 284.59 411.65 285.55 405.00 285.00 C 398.35 284.45 390.03 286.99 386.00 283.00
C 399.49 284.80 414.49 284.42 428.00 283.00
C 427.78 277.91 429.29 272.79 421.00 274.00 C 412.71 275.21 407.32 272.79 400.00 274.00 C 392.68 275.21 388.33 273.06 383.92 269.08 C 379.51 265.11 377.93 262.30 373.08 258.92 C 368.23 255.54 368.28 249.28 366.98 244.02 C 365.67 238.77 364.21 232.33 362.33 227.67 C 360.44 223.02 359.13 216.51 355.92 213.08 C 352.72 209.64 351.96 201.81 348.00 200.00
C 344.75 200.00 339.16 198.92 337.00 202.00
C 336.88 202.47 337.00 203.00 337.00 203.00
C 337.00 243.00 337.00 283.00 337.00 323.00
C 342.58 322.23 361.76 321.46 359.00 330.00 C 356.24 338.54 362.97 351.58 353.00 353.00 C 343.03 354.41 334.81 351.97 324.00 353.00 C 313.19 354.03 307.40 351.66 295.00 353.00 C 282.60 354.34 284.68 347.10 284.00 335.00 C 283.32 322.90 291.15 322.45 303.00 324.00
C 303.00 300.00 303.00 276.00 303.00 252.00
C 299.47 252.00 299.36 257.12 296.00 258.00
C 294.66 260.37 293.26 262.77 292.00 265.00
C 281.81 283.10 267.00 298.37 258.00 317.00
C 265.69 318.23 275.89 314.48 282.00 319.00
C 284.92 324.91 281.20 336.25 282.00 343.00 C 282.80 349.75 282.80 360.25 282.00 367.00 C 281.20 373.75 284.92 385.09 282.00 391.00
C 279.08 396.90 265.58 391.44 259.00 393.00 C 252.42 394.56 253.61 378.02 254.00 373.00
C 250.33 373.00 246.67 373.00 243.00 373.00
C 243.54 382.82 245.41 393.96 234.00 393.00 C 222.59 392.04 213.79 395.73 215.00 383.00 C 216.21 370.27 214.09 365.05 215.00 353.00
C 205.90 353.65 198.24 352.14 189.00 353.00 C 179.76 353.86 171.62 351.40 162.00 353.00 C 152.38 354.60 145.12 351.76 147.00 342.00 C 148.88 332.24 143.05 321.38 156.00 324.00 C 168.95 326.62 168.33 318.42 168.00 309.00 C 167.67 299.58 168.19 292.11 168.00 283.00 C 167.81 273.89 168.17 265.01 168.00 256.00 C 167.83 246.99 168.28 239.01 168.00 230.00 C 167.72 220.99 168.54 212.12 168.00 203.00 C 167.46 193.88 150.92 203.14 147.00 197.00
C 144.83 192.27 146.86 181.36 147.00 176.00 C 147.14 170.64 160.09 173.37 165.00 173.00 C 169.91 172.63 180.43 172.94 186.00 173.00 C 191.57 173.06 200.49 171.46 204.75 175.25 C 209.01 179.04 209.95 183.55 213.00 188.00
C 215.32 178.24 213.35 166.51 214.00 156.00
C 211.97 159.67 201.45 160.52 197.75 163.75 C 194.06 166.99 185.60 170.44 181.00 172.00
C 189.57 162.06 201.90 156.65 214.00 153.00
C 214.00 152.00 214.00 151.00 214.00 150.00
C 211.86 153.86 202.00 153.51 198.31 156.31 C 194.61 159.10 188.84 162.00 184.75 164.75 C 180.66 167.51 174.88 174.13 170.00 171.00
C 183.48 161.12 197.35 150.57 214.00 147.00
C 214.00 146.00 214.00 145.00 214.00 144.00
C 211.50 148.52 200.02 147.89 195.75 151.75 C 191.49 155.62 183.28 157.41 178.77 161.77 C 174.26 166.13 168.53 172.12 162.00 172.00
C 175.61 155.92 194.47 146.16 214.00 141.00
C 214.00 140.00 214.00 139.00 214.00 138.00
C 202.48 140.43 191.88 147.10 181.75 152.75 C 171.63 158.40 164.34 169.37 154.00 172.00
C 169.63 152.24 191.58 141.50 214.00 134.00
C 214.00 133.00 214.00 132.00 214.00 131.00
C 206.17 134.74 195.84 136.59 188.75 141.75 C 181.67 146.91 172.07 148.56 166.30 155.30 C 160.54 162.05 152.97 165.92 147.77 172.77 C 142.57 179.62 148.06 195.38 140.00 202.00
C 141.93 200.74 143.91 199.00 145.00 197.00
C 150.27 201.37 141.24 205.58 139.69 211.69 C 138.15 217.81 133.50 223.56 132.22 230.22 C 130.94 236.89 126.72 244.75 127.00 252.00
C 124.33 235.10 135.11 218.57 140.00 203.00
C 125.20 221.53 118.91 247.28 119.00 272.00
C 114.79 246.12 125.30 220.60 136.00 198.00
C 121.98 213.94 114.66 236.98 114.00 259.00
C 110.80 240.61 116.64 221.68 124.00 205.00
C 111.12 224.14 108.46 250.86 107.00 275.00
C 99.04 207.73 147.43 136.37 214.00 122.00
C 214.49 120.19 214.11 120.51 216.00 120.00
C 218.98 119.20 223.88 119.69 227.00 120.00 C 230.12 120.31 236.20 118.65 239.00 120.00
C 244.46 122.64 239.82 137.11 241.00 144.00 C 242.18 150.89 240.41 162.12 241.00 170.00 C 241.59 177.88 240.55 188.84 241.00 197.00
C 234.83 197.66 227.34 195.68 222.00 198.00
C 226.15 195.38 239.17 202.22 241.74 196.74 C 244.32 191.26 240.85 181.37 242.00 175.00 C 243.15 168.63 241.14 159.61 242.00 153.00
C 246.00 153.00 250.00 153.00 254.00 153.00
C 253.19 166.52 255.07 176.08 254.00 190.00 C 252.93 203.92 273.36 195.18 282.00 199.00
C 282.45 198.13 283.48 197.07 284.00 196.00
C 285.49 185.44 280.80 171.44 283.00 160.00
C 292.11 162.84 301.75 166.79 309.00 173.00
C 310.33 173.00 311.67 173.00 313.00 173.00
C 308.25 171.70 304.02 165.02 298.77 163.23 C 293.52 161.44 284.91 158.45 283.00 154.00
C 295.55 157.62 309.19 163.86 318.00 173.00
C 325.61 173.00 334.52 173.77 342.00 173.00 C 349.48 172.23 360.30 172.46 358.00 181.00 C 355.70 189.55 362.82 199.22 353.00 200.00
C 355.89 205.79 358.62 211.76 361.23 217.77 C 363.84 223.78 366.26 229.67 368.02 235.98 C 369.79 242.28 369.65 250.00 373.75 255.25 C 377.86 260.49 382.04 262.62 386.25 267.75 C 390.46 272.88 400.52 272.80 407.00 272.00 C 413.48 271.20 426.51 274.90 429.00 269.00
C 414.45 268.19 397.86 272.33 386.25 263.75 C 374.63 255.17 372.52 244.39 370.32 231.68 C 368.13 218.96 356.99 211.15 358.00 199.00
C 363.82 209.25 370.39 218.89 373.07 230.93 C 375.75 242.96 377.29 253.33 388.08 261.92 C 398.87 270.50 415.05 266.00 429.00 267.00
C 425.43 260.37 411.56 262.46 403.00 263.00 C 394.44 263.54 389.03 258.81 383.75 252.25 C 378.48 245.69 378.61 238.45 375.98 231.02 C 373.34 223.60 371.09 216.50 367.30 209.70 C 363.52 202.89 358.09 197.35 359.00 189.00
C 362.97 194.93 367.75 200.49 370.68 207.32 C 373.61 214.15 375.58 221.92 378.22 228.78 C 380.87 235.64 380.56 245.05 385.25 250.75 C 389.94 256.45 396.12 262.93 404.00 261.00 C 411.88 259.07 426.01 265.38 429.00 257.00
C 416.57 256.53 394.52 261.00 387.75 248.25 C 380.98 235.50 381.98 223.16 374.77 211.23 C 367.56 199.30 361.94 190.99 359.00 178.00
C 363.42 183.55 367.32 189.56 371.25 195.75 C 375.17 201.95 377.96 209.46 380.68 216.32 C 383.40 223.19 385.46 233.08 387.00 240.00 C 388.54 246.92 395.17 254.90 403.00 254.00 C 410.83 253.10 424.31 257.02 429.00 251.00
C 419.71 249.65 407.42 253.11 398.70 250.30 C 389.98 247.50 390.18 237.98 387.98 231.02 C 385.77 224.07 383.89 215.01 380.77 208.23 C 377.65 201.45 373.50 195.47 369.92 189.08 C 366.34 182.69 361.12 178.11 356.75 172.25 C 352.39 166.38 347.34 161.93 341.75 157.25 C 336.16 152.58 330.30 148.71 324.23 144.77 C 318.16 140.83 310.55 138.37 304.68 134.32 C 298.81 130.27 286.76 131.56 282.00 127.00
C 282.00 128.00 282.00 129.00 282.00 130.00
C 283.33 127.24 292.16 132.21 295.68 133.32 C 299.20 134.43 304.73 135.89 309.68 138.32 C 314.63 140.75 314.28 142.46 321.70 145.31 C 329.11 148.15 337.55 156.09 343.75 161.25 C 349.94 166.41 349.25 166.39 353.00 172.00
C 340.43 168.20 333.17 155.04 320.92 149.08 C 308.66 143.13 295.62 135.63 282.00 133.00
C 282.00 134.00 282.00 135.00 282.00 136.00
C 305.85 140.53 328.64 153.00 345.00 172.00
C 333.99 168.73 326.50 158.64 315.92 153.08 C 305.34 147.53 293.84 141.59 282.00 139.00
C 282.00 140.00 282.00 141.00 282.00 142.00
C 283.83 144.87 289.72 143.41 294.23 145.77 C 298.74 148.13 299.67 147.61 306.23 150.77 C 312.79 153.93 321.59 159.12 327.70 163.30 C 333.80 167.49 331.33 167.74 336.00 172.00
C 317.81 164.13 302.71 148.06 282.00 145.00
C 282.00 146.00 282.00 147.00 282.00 148.00
C 299.29 150.61 313.77 161.29 328.00 171.00
C 319.66 173.72 314.17 163.63 306.31 160.69 C 298.44 157.76 290.66 151.98 282.00 151.00
C 282.00 166.33 282.00 181.67 282.00 197.00
C 273.20 195.18 254.61 202.34 255.00 190.00 C 255.39 177.66 254.80 167.02 255.00 155.00 C 255.20 142.98 254.85 131.93 255.00 120.00
C 263.67 120.00 272.33 120.00 281.00 120.00
C 272.60 119.88 249.88 112.92 254.00 129.00
C 250.00 129.00 246.00 129.00 242.00 129.00
C 245.62 113.38 222.48 118.85 213.02 120.02 C 203.57 121.20 192.99 126.31 184.70 130.70 C 176.40 135.08 168.31 140.15 161.08 146.08 C 153.85 152.01 146.91 157.28 140.75 164.75 C 134.60 172.23 130.03 179.24 124.25 187.25 C 118.48 195.27 115.51 204.54 111.97 213.97 C 108.43 223.40 105.22 233.41 103.00 244.00 C 100.78 254.59 102.26 269.52 100.00 280.00
C 94.11 213.60 130.69 149.90 190.93 122.93 C 251.16 95.96 328.36 111.84 371.00 164.00
C 329.82 106.68 247.52 94.29 186.22 123.22 C 124.93 152.15 90.22 219.36 94.00 286.00
C 88.56 243.01 101.37 197.56 127.75 164.75 C 154.13 131.95 185.46 113.79 225.99 105.99 C 266.52 98.20 318.02 109.88 349.30 135.70 C 380.58 161.52 403.49 193.85 408.00 232.00
C 402.99 221.62 402.79 207.66 394.00 199.00
C 395.15 209.44 401.86 213.71 402.07 224.93 C 402.29 236.14 415.02 236.50 425.00 235.00
C 421.36 206.37 409.26 179.21 392.00 156.00
C 374.05 138.05 362.44 122.34 340.22 108.78 C 318.01 95.22 292.79 88.89 267.00 84.00
C 259.19 85.67 251.39 87.35 243.00 88.00
C 255.03 87.82 270.72 87.66 281.78 90.22 C 292.84 92.78 302.83 95.38 312.77 99.23 C 322.71 103.08 331.08 108.28 339.77 113.23 C 348.46 118.18 355.54 123.69 362.92 130.08 C 370.30 136.47 377.40 143.19 383.23 150.77 C 389.06 158.34 395.09 165.38 400.22 173.78 C 405.36 182.18 410.04 192.44 413.23 201.77 C 416.42 211.10 422.82 224.07 419.00 232.00
C 415.95 218.29 411.62 201.30 404.92 189.08 C 398.21 176.87 390.64 165.46 382.25 154.75 C 373.86 144.04 362.77 135.58 352.75 127.25 C 342.73 118.91 328.87 109.79 317.00 109.00
C 365.89 130.50 408.50 179.29 414.00 232.00
C 397.75 152.24 318.09 94.05 237.00 103.00 C 155.91 111.95 92.99 179.53 88.00 261.00
C 85.29 236.56 94.75 208.27 106.08 187.08 C 117.40 165.88 128.91 151.03 147.77 134.77 C 166.63 118.51 186.71 111.20 210.78 103.78 C 234.84 96.35 269.37 97.88 294.00 101.00
C 237.64 88.08 179.36 103.03 137.75 141.75 C 96.14 180.47 78.40 233.97 83.00 290.00
C 69.02 214.24 113.95 135.53 184.00 106.00
C 168.61 108.49 153.07 118.81 139.75 129.75 C 126.43 140.69 117.03 153.13 107.25 167.25 C 97.48 181.38 88.59 196.30 83.98 213.98 C 79.36 231.65 75.86 256.21 75.00 275.00
C 75.00 266.62 75.00 256.18 75.00 248.00 C 75.00 239.82 76.87 232.41 78.01 225.01 C 79.15 217.60 81.78 211.66 84.02 205.02 C 86.27 198.39 88.35 192.21 91.08 186.08 C 93.80 179.94 97.36 175.16 100.70 169.70 C 104.03 164.23 107.72 159.29 111.23 154.23 C 114.74 149.17 118.62 144.29 123.25 140.25 C 127.88 136.21 131.75 130.92 136.25 127.25 C 140.76 123.58 146.77 118.93 151.25 116.25 C 155.74 113.58 163.43 108.09 166.92 105.92 C 170.42 103.76 183.24 98.19 182.00 97.00
M 254.00 131.00 
C 255.31 137.87 245.96 133.99 242.00 135.00
C 240.69 128.13 250.04 132.01 254.00 131.00
M 254.00 137.00 
C 255.31 143.87 245.96 139.99 242.00 141.00
C 240.69 134.13 250.04 138.01 254.00 137.00
M 254.00 143.00 
C 254.23 148.68 245.66 144.90 242.00 146.00
C 241.77 140.32 250.34 144.10 254.00 143.00
M 254.00 148.00 
C 254.23 153.68 245.66 149.90 242.00 151.00
C 241.77 145.32 250.34 149.10 254.00 148.00
M 213.00 160.00 
C 212.76 164.59 205.88 165.23 202.31 167.31 C 198.73 169.38 194.17 174.47 190.00 171.00
C 197.22 166.42 204.84 162.47 213.00 160.00
M 92.00 277.00 
C 91.70 286.58 95.10 297.21 96.98 306.02 C 98.86 314.84 102.58 322.88 106.32 330.68 C 110.07 338.47 114.00 345.18 118.77 352.23 C 123.54 359.28 129.07 363.71 134.75 370.25 C 140.43 376.79 146.99 381.23 153.75 386.25 C 160.50 391.28 166.20 395.94 173.75 400.25 C 181.29 404.57 188.73 407.53 197.03 410.97 C 205.32 414.42 214.57 416.52 224.01 417.99 C 233.45 419.46 246.96 420.58 257.00 420.00 C 267.04 419.42 278.82 419.28 288.01 417.01 C 297.20 414.74 305.11 412.03 313.22 408.22 C 321.34 404.41 328.87 401.78 336.08 397.08 C 343.28 392.37 350.54 388.35 357.08 383.08 C 363.62 377.82 368.73 372.58 374.75 366.75 C 380.77 360.92 385.31 354.85 390.25 348.25 C 395.19 341.65 398.40 333.64 402.31 326.31 C 406.21 318.97 406.49 306.07 413.00 302.00
C 396.49 377.54 314.30 429.58 239.00 424.00 C 163.70 418.42 92.08 353.68 92.00 277.00 Z"/>
</g>
<g fill="#C3BB90" fill-opacity="0.45" stroke="None">
<path d="
M 96.00 91.00 
C 98.13 89.18 100.00 87.00 102.00 85.00
C 99.87 86.82 98.00 89.00 96.00 91.00 Z"/>
</g>
<g fill="#D8AE16" fill-opacity="1.00" stroke="None">
<path d="
M 147.00 109.00 
C 147.00 109.00 147.68 109.24 148.00 109.00
C 154.66 106.58 159.16 89.11 149.00 94.00
C 149.75 72.41 115.63 98.43 136.00 103.00
C 133.22 109.88 142.27 111.98 147.00 109.00
M 145.00 87.00 
C 153.19 91.11 140.38 106.40 133.33 100.67 C 126.28 94.94 137.96 83.47 145.00 87.00
M 153.00 94.00 
C 159.00 102.77 141.10 115.11 137.00 105.00
C 143.87 103.90 147.99 97.24 153.00 94.00 Z"/>
</g>
<g fill="#F9DD31" fill-opacity="1.00" stroke="None">
<path d="
M 358.00 86.00 
C 346.92 84.07 349.00 100.04 359.78 101.22 C 370.56 102.40 367.14 87.60 358.00 86.00 Z"/>
</g>
<g fill="#FBE034" fill-opacity="1.00" stroke="None">
<path d="
M 145.00 87.00 
C 137.96 83.47 126.28 94.94 133.33 100.67 C 140.38 106.40 153.19 91.11 145.00 87.00 Z"/>
</g>
<g fill="#FBD934" fill-opacity="1.00" stroke="None">
<path d="
M 153.00 94.00 
C 147.99 97.24 143.87 103.90 137.00 105.00
C 141.10 115.11 159.00 102.77 153.00 94.00 Z"/>
</g>
<g fill="#F7D530" fill-opacity="1.00" stroke="None">
<path d="
M 347.00 94.00 
C 341.66 92.53 341.63 102.29 345.77 104.23 C 349.91 106.17 350.91 110.17 356.92 108.92 C 362.94 107.68 359.39 102.31 354.75 102.25 C 350.10 102.20 349.51 94.69 347.00 94.00 Z"/>
</g>
<g fill="#F9D937" fill-opacity="1.00" stroke="None">
<path d="
M 128.00 113.00 
C 125.06 111.80 114.74 120.28 120.33 123.67 C 125.92 127.06 134.39 115.60 128.00 113.00 Z"/>
</g>
<g fill="#FADA36" fill-opacity="1.00" stroke="None">
<path d="
M 373.00 113.00 
C 366.20 111.55 366.73 123.33 373.99 123.99 C 381.25 124.65 377.96 114.06 373.00 113.00 Z"/>
</g>
<g fill="#ECB12D" fill-opacity="1.00" stroke="None">
<path d="
M 369.00 170.00 
C 337.43 126.59 281.65 106.34 229.00 116.00
C 255.18 114.39 289.89 116.82 313.31 127.69 C 336.72 138.57 351.04 152.62 369.00 170.00 Z"/>
</g>
<g fill="#F8E3A8" fill-opacity="1.00" stroke="None">
<path d="
M 214.00 122.00 
C 213.31 124.57 214.00 128.32 214.00 131.00
C 214.00 132.00 214.00 133.00 214.00 134.00
C 214.00 135.33 214.00 136.67 214.00 138.00
C 214.00 139.00 214.00 140.00 214.00 141.00
C 214.00 142.00 214.00 143.00 214.00 144.00
C 214.00 145.00 214.00 146.00 214.00 147.00
C 214.00 148.00 214.00 149.00 214.00 150.00
C 214.00 151.00 214.00 152.00 214.00 153.00
C 214.00 154.00 214.00 155.00 214.00 156.00
C 213.35 166.51 215.32 178.24 213.00 188.00
C 209.95 183.55 209.01 179.04 204.75 175.25 C 200.49 171.46 191.57 173.06 186.00 173.00 C 180.43 172.94 169.91 172.63 165.00 173.00 C 160.09 173.37 147.14 170.64 147.00 176.00 C 146.86 181.36 144.83 192.27 147.00 197.00
C 147.16 197.36 148.65 197.92 149.00 198.00
C 150.64 196.15 145.18 188.07 148.00 185.00 C 150.82 181.93 142.50 174.31 151.03 174.03 C 159.56 173.75 170.39 174.34 179.00 174.00 C 187.61 173.66 184.26 176.05 193.00 174.00 C 201.74 171.95 207.06 177.50 210.00 185.00
C 210.17 185.43 210.00 186.00 210.00 186.00
C 211.56 187.49 212.58 189.91 215.00 190.00
C 215.66 166.75 213.67 142.80 216.00 120.00
C 214.11 120.51 214.49 120.19 214.00 122.00 Z"/>
</g>
<g fill="#FEFBE1" fill-opacity="1.00" stroke="None">
<path d="
M 210.00 186.00 
C 211.07 188.73 212.32 192.06 216.00 191.00
C 216.92 180.66 214.78 167.01 216.00 157.00 C 217.22 146.99 213.60 133.24 216.07 124.92 C 218.53 116.60 241.73 118.35 239.00 129.00 C 236.27 139.65 240.79 152.22 239.00 163.00 C 237.21 173.78 241.95 186.96 237.00 196.00
C 237.90 195.71 239.08 196.23 240.00 196.00
C 239.34 170.75 241.33 144.80 239.00 120.00
C 236.20 118.65 230.12 120.31 227.00 120.00 C 223.88 119.69 218.98 119.20 216.00 120.00
C 213.67 142.80 215.66 166.75 215.00 190.00
C 212.58 189.91 211.56 187.49 210.00 186.00 Z"/>
</g>
<g fill="#FDEAB2" fill-opacity="1.00" stroke="None">
<path d="
M 237.00 196.00 
C 232.40 197.49 225.32 193.93 221.00 196.00
C 217.16 198.61 223.04 202.41 224.00 204.00
C 223.01 201.92 220.03 199.97 222.00 198.00
C 227.34 195.68 234.83 197.66 241.00 197.00
C 240.55 188.84 241.59 177.88 241.00 170.00 C 240.41 162.12 242.18 150.89 241.00 144.00 C 239.82 137.11 244.46 122.64 239.00 120.00
C 241.33 144.80 239.34 170.75 240.00 196.00
C 239.08 196.23 237.90 195.71 237.00 196.00 Z"/>
</g>
<g fill="#FEF0C0" fill-opacity="1.00" stroke="None">
<path d="
M 282.00 151.00 
C 282.00 150.00 282.00 149.00 282.00 148.00
C 282.00 147.00 282.00 146.00 282.00 145.00
C 282.00 144.00 282.00 143.00 282.00 142.00
C 282.00 141.00 282.00 140.00 282.00 139.00
C 282.00 138.00 282.00 137.00 282.00 136.00
C 282.00 135.00 282.00 134.00 282.00 133.00
C 282.00 132.00 282.00 131.00 282.00 130.00
C 282.00 129.00 282.00 128.00 282.00 127.00
C 282.00 126.50 282.00 125.50 282.00 125.00
C 282.00 123.86 282.33 122.09 282.00 121.00
C 281.89 120.65 281.30 120.22 281.00 120.00
C 272.33 120.00 263.67 120.00 255.00 120.00
C 254.85 131.93 255.20 142.98 255.00 155.00 C 254.80 167.02 255.39 177.66 255.00 190.00 C 254.61 202.34 273.20 195.18 282.00 197.00
C 282.00 181.67 282.00 166.33 282.00 151.00
M 281.00 196.00 
C 271.75 195.09 254.98 200.40 256.00 188.00 C 257.02 175.60 255.48 166.82 256.00 155.00 C 256.52 143.18 255.61 132.70 256.00 121.00
C 264.83 121.85 281.71 116.74 281.00 129.00 C 280.29 141.26 281.36 150.25 281.00 162.00 C 280.64 173.75 281.27 184.36 281.00 196.00 Z"/>
</g>
<g fill="#F9DB30" fill-opacity="1.00" stroke="None">
<path d="
M 111.00 121.00 
C 101.73 118.65 94.05 133.89 103.00 138.00 C 111.95 142.11 120.11 123.31 111.00 121.00 Z"/>
</g>
<g fill="#FEFEFD" fill-opacity="1.00" stroke="None">
<path d="
M 210.00 186.00 
C 210.00 186.00 210.17 185.43 210.00 185.00
C 206.87 182.01 203.90 179.30 203.00 175.00
C 194.68 175.33 186.31 174.55 178.00 175.00 C 169.69 175.45 161.29 174.15 153.00 175.00 C 144.71 175.85 150.93 191.13 149.00 197.00
C 155.43 197.34 172.51 193.56 171.00 204.00 C 169.49 214.44 170.17 223.53 170.00 234.00 C 169.83 244.47 170.37 255.77 170.00 266.00 C 169.63 276.23 170.85 287.24 170.00 297.00 C 169.15 306.76 173.62 319.39 166.00 325.00
C 164.45 325.28 162.58 325.00 161.00 325.00
C 153.69 325.78 148.29 326.55 149.00 335.00 C 149.71 343.46 147.21 350.08 156.00 350.00 C 164.79 349.92 171.35 349.73 179.00 350.00 C 186.65 350.27 194.54 349.15 201.00 350.00 C 207.46 350.85 217.27 347.44 217.99 355.01 C 218.71 362.58 218.08 369.59 218.00 378.00 C 217.92 386.41 217.08 391.15 227.00 391.00 C 236.92 390.85 241.01 390.67 240.00 381.00 C 238.99 371.33 240.47 367.13 240.00 359.00 C 239.53 350.87 240.24 344.12 240.00 337.00 C 239.76 329.88 242.24 319.45 235.00 319.00 C 227.75 318.56 218.57 317.72 217.01 323.01 C 215.45 328.30 201.67 328.56 200.08 322.92 C 198.49 317.28 200.83 307.78 200.00 301.00 C 199.17 294.22 200.73 286.55 200.00 279.00 C 199.27 271.45 201.11 264.25 200.00 256.00 C 198.89 247.75 202.55 244.53 206.90 251.10 C 211.25 257.67 211.47 259.84 217.00 260.00
C 212.43 264.10 220.18 270.85 223.77 276.23 C 227.36 281.61 232.14 287.99 235.00 294.00
C 235.17 294.43 235.00 295.00 235.00 295.00
C 243.53 302.46 245.06 312.32 255.00 319.00
C 257.03 312.34 261.47 305.25 265.75 299.75 C 270.03 294.26 272.91 285.00 278.08 281.08 C 283.25 277.17 285.09 264.72 289.33 262.33 C 293.57 259.94 300.76 243.52 304.30 249.71 C 307.83 255.89 303.29 269.90 305.00 279.00 C 306.71 288.10 302.94 299.18 305.00 310.00 C 307.06 320.82 303.11 328.25 291.00 326.00 C 278.89 323.75 291.44 345.98 287.00 351.00
C 310.00 351.00 333.00 351.00 356.00 351.00
C 353.86 344.79 359.00 332.87 355.67 327.33 C 352.34 321.79 339.22 329.46 335.00 324.00
C 334.69 311.51 335.42 299.54 335.00 287.00 C 334.58 274.46 335.80 262.73 335.00 250.00 C 334.20 237.27 336.71 226.19 335.00 213.00 C 333.29 199.81 341.91 194.57 355.00 198.00
C 355.15 190.59 359.09 179.35 353.00 174.00
C 339.11 170.92 326.12 177.40 312.00 174.00 C 297.88 170.60 295.83 184.38 288.00 191.00
C 287.16 191.71 286.69 192.22 286.00 193.00
C 285.09 194.66 284.59 197.15 284.00 199.00
C 280.74 209.18 274.58 216.50 268.08 225.08 C 261.58 233.66 258.39 246.44 245.00 245.00
C 248.64 239.90 238.83 235.42 236.77 230.23 C 234.71 225.04 229.23 218.43 226.75 213.25 C 224.27 208.06 217.29 200.51 221.00 196.00
C 225.32 193.93 232.40 197.49 237.00 196.00
C 241.95 186.96 237.21 173.78 239.00 163.00 C 240.79 152.22 236.27 139.65 239.00 129.00 C 241.73 118.35 218.53 116.60 216.07 124.92 C 213.60 133.24 217.22 146.99 216.00 157.00 C 214.78 167.01 216.92 180.66 216.00 191.00
C 212.32 192.06 211.07 188.73 210.00 186.00 Z"/>
</g>
<g fill="#FEFEFC" fill-opacity="1.00" stroke="None">
<path d="
M 281.00 196.00 
C 281.27 184.36 280.64 173.75 281.00 162.00 C 281.36 150.25 280.29 141.26 281.00 129.00 C 281.71 116.74 264.83 121.85 256.00 121.00
C 255.61 132.70 256.52 143.18 256.00 155.00 C 255.48 166.82 257.02 175.60 256.00 188.00 C 254.98 200.40 271.75 195.09 281.00 196.00 Z"/>
</g>
<g fill="#EEB629" fill-opacity="1.00" stroke="None">
<path d="
M 282.00 125.00 
C 295.76 123.57 309.61 132.19 321.25 138.75 C 332.90 145.30 343.64 151.50 352.75 162.25 C 361.86 172.99 370.53 179.50 376.25 192.75 C 381.96 206.01 390.30 216.28 391.67 232.33 C 393.04 248.38 413.45 252.83 428.00 246.00
C 421.16 242.46 399.32 249.53 395.98 239.02 C 392.63 228.52 391.25 218.55 386.93 209.07 C 382.60 199.59 379.74 191.34 373.77 183.23 C 367.80 175.12 362.49 170.45 356.25 162.75 C 350.01 155.06 342.28 151.26 335.08 144.92 C 327.89 138.58 317.82 136.26 310.23 130.77 C 302.63 125.28 288.81 126.89 282.00 121.00
C 282.33 122.09 282.00 123.86 282.00 125.00 Z"/>
</g>
<g fill="#F8D82D" fill-opacity="1.00" stroke="None">
<path d="
M 392.00 121.00 
C 381.24 118.11 379.20 135.50 390.00 138.00 C 400.80 140.50 401.73 123.61 392.00 121.00 Z"/>
</g>
<g fill="#D49A0F" fill-opacity="1.00" stroke="None">
<path d="
M 214.00 131.00 
C 214.00 128.32 213.31 124.57 214.00 122.00
C 147.43 136.37 99.04 207.73 107.00 275.00
C 108.46 250.86 111.12 224.14 124.00 205.00
C 116.64 221.68 110.80 240.61 114.00 259.00
C 114.66 236.98 121.98 213.94 136.00 198.00
C 125.30 220.60 114.79 246.12 119.00 272.00
C 118.91 247.28 125.20 221.53 140.00 203.00
C 135.11 218.57 124.33 235.10 127.00 252.00
C 126.72 244.75 130.94 236.89 132.22 230.22 C 133.50 223.56 138.15 217.81 139.69 211.69 C 141.24 205.58 150.27 201.37 145.00 197.00
C 143.91 199.00 141.93 200.74 140.00 202.00
C 148.06 195.38 142.57 179.62 147.77 172.77 C 152.97 165.92 160.54 162.05 166.30 155.30 C 172.07 148.56 181.67 146.91 188.75 141.75 C 195.84 136.59 206.17 134.74 214.00 131.00 Z"/>
</g>
<g fill="#C98F0E" fill-opacity="1.00" stroke="None">
<path d="
M 282.00 130.00 
C 282.00 131.00 282.00 132.00 282.00 133.00
C 295.62 135.63 308.66 143.13 320.92 149.08 C 333.17 155.04 340.43 168.20 353.00 172.00
C 349.25 166.39 349.94 166.41 343.75 161.25 C 337.55 156.09 329.11 148.15 321.70 145.31 C 314.28 142.46 314.63 140.75 309.68 138.32 C 304.73 135.89 299.20 134.43 295.68 133.32 C 292.16 132.21 283.33 127.24 282.00 130.00 Z"/>
</g>
<g fill="#C8900B" fill-opacity="1.00" stroke="None">
<path d="
M 254.00 131.00 
C 250.04 132.01 240.69 128.13 242.00 135.00
C 245.96 133.99 255.31 137.87 254.00 131.00 Z"/>
</g>
<g fill="#C88C0A" fill-opacity="1.00" stroke="None">
<path d="
M 214.00 138.00 
C 214.00 136.67 214.00 135.33 214.00 134.00
C 191.58 141.50 169.63 152.24 154.00 172.00
C 164.34 169.37 171.63 158.40 181.75 152.75 C 191.88 147.10 202.48 140.43 214.00 138.00 Z"/>
</g>
<g fill="#C88E0C" fill-opacity="1.00" stroke="None">
<path d="
M 282.00 139.00 
C 293.84 141.59 305.34 147.53 315.92 153.08 C 326.50 158.64 333.99 168.73 345.00 172.00
C 328.64 153.00 305.85 140.53 282.00 136.00
C 282.00 137.00 282.00 138.00 282.00 139.00 Z"/>
</g>
<g fill="#C58D08" fill-opacity="1.00" stroke="None">
<path d="
M 254.00 137.00 
C 250.04 138.01 240.69 134.13 242.00 141.00
C 245.96 139.99 255.31 143.87 254.00 137.00 Z"/>
</g>
<g fill="#CA8F0C" fill-opacity="1.00" stroke="None">
<path d="
M 214.00 144.00 
C 214.00 143.00 214.00 142.00 214.00 141.00
C 194.47 146.16 175.61 155.92 162.00 172.00
C 168.53 172.12 174.26 166.13 178.77 161.77 C 183.28 157.41 191.49 155.62 195.75 151.75 C 200.02 147.89 211.50 148.52 214.00 144.00 Z"/>
</g>
<g fill="#C78D0C" fill-opacity="1.00" stroke="None">
<path d="
M 282.00 145.00 
C 302.71 148.06 317.81 164.13 336.00 172.00
C 331.33 167.74 333.80 167.49 327.70 163.30 C 321.59 159.12 312.79 153.93 306.23 150.77 C 299.67 147.61 298.74 148.13 294.23 145.77 C 289.72 143.41 283.83 144.87 282.00 142.00
C 282.00 143.00 282.00 144.00 282.00 145.00 Z"/>
</g>
<g fill="#C18906" fill-opacity="1.00" stroke="None">
<path d="
M 254.00 143.00 
C 250.34 144.10 241.77 140.32 242.00 146.00
C 245.66 144.90 254.23 148.68 254.00 143.00 Z"/>
</g>
<g fill="#F2CF2E" fill-opacity="1.00" stroke="None">
<path d="
M 99.00 144.00 
C 91.53 141.22 85.87 153.32 92.78 156.22 C 99.68 159.11 104.65 146.10 99.00 144.00 Z"/>
</g>
<g fill="#F8D533" fill-opacity="1.00" stroke="None">
<path d="
M 396.00 148.00 
C 395.20 154.45 407.65 159.24 407.97 152.03 C 408.30 144.81 399.14 141.99 396.00 148.00 Z"/>
</g>
<g fill="#C78D0A" fill-opacity="1.00" stroke="None">
<path d="
M 214.00 150.00 
C 214.00 149.00 214.00 148.00 214.00 147.00
C 197.35 150.57 183.48 161.12 170.00 171.00
C 174.88 174.13 180.66 167.51 184.75 164.75 C 188.84 162.00 194.61 159.10 198.31 156.31 C 202.00 153.51 211.86 153.86 214.00 150.00 Z"/>
</g>
<g fill="#C28A06" fill-opacity="1.00" stroke="None">
<path d="
M 254.00 148.00 
C 250.34 149.10 241.77 145.32 242.00 151.00
C 245.66 149.90 254.23 153.68 254.00 148.00 Z"/>
</g>
<g fill="#C78D0D" fill-opacity="1.00" stroke="None">
<path d="
M 282.00 151.00 
C 290.66 151.98 298.44 157.76 306.31 160.69 C 314.17 163.63 319.66 173.72 328.00 171.00
C 313.77 161.29 299.29 150.61 282.00 148.00
C 282.00 149.00 282.00 150.00 282.00 151.00 Z"/>
</g>
<g fill="#C68B08" fill-opacity="1.00" stroke="None">
<path d="
M 214.00 156.00 
C 214.00 155.00 214.00 154.00 214.00 153.00
C 201.90 156.65 189.57 162.06 181.00 172.00
C 185.60 170.44 194.06 166.99 197.75 163.75 C 201.45 160.52 211.97 159.67 214.00 156.00 Z"/>
</g>
<g fill="#D7A01A" fill-opacity="1.00" stroke="None">
<path d="
M 222.00 198.00 
C 220.03 199.97 223.01 201.92 224.00 204.00
C 229.55 215.74 237.08 227.35 245.00 238.00
C 253.99 248.32 260.35 231.54 265.77 224.77 C 271.19 218.00 277.95 206.79 282.00 199.00
C 273.36 195.18 252.93 203.92 254.00 190.00 C 255.07 176.08 253.19 166.52 254.00 153.00
C 250.00 153.00 246.00 153.00 242.00 153.00
C 241.14 159.61 243.15 168.63 242.00 175.00 C 240.85 181.37 244.32 191.26 241.74 196.74 C 239.17 202.22 226.15 195.38 222.00 198.00 Z"/>
</g>
<g fill="#C48A0D" fill-opacity="1.00" stroke="None">
<path d="
M 313.00 173.00 
C 314.67 173.00 316.33 173.00 318.00 173.00
C 309.19 163.86 295.55 157.62 283.00 154.00
C 284.91 158.45 293.52 161.44 298.77 163.23 C 304.02 165.02 308.25 171.70 313.00 173.00 Z"/>
</g>
<g fill="#C58907" fill-opacity="1.00" stroke="None">
<path d="
M 213.00 160.00 
C 204.84 162.47 197.22 166.42 190.00 171.00
C 194.17 174.47 198.73 169.38 202.31 167.31 C 205.88 165.23 212.76 164.59 213.00 160.00 Z"/>
</g>
<g fill="#D49B18" fill-opacity="1.00" stroke="None">
<path d="
M 284.00 196.00 
C 284.74 194.48 284.90 194.24 286.00 193.00
C 286.69 192.22 287.16 191.71 288.00 191.00
C 294.28 181.51 295.14 173.00 309.00 173.00
C 301.75 166.79 292.11 162.84 283.00 160.00
C 280.80 171.44 285.49 185.44 284.00 196.00 Z"/>
</g>
<g fill="#F9DA2F" fill-opacity="1.00" stroke="None">
<path d="
M 85.00 161.00 
C 76.01 157.76 68.20 173.70 77.33 177.67 C 86.45 181.64 93.71 164.14 85.00 161.00 Z"/>
</g>
<g fill="#FBE12E" fill-opacity="1.00" stroke="None">
<path d="
M 419.00 162.00 
C 409.42 158.63 406.44 171.57 414.78 176.22 C 423.12 180.88 426.92 164.79 419.00 162.00 Z"/>
</g>
<g fill="#F9DF32" fill-opacity="1.00" stroke="None">
<path d="
M 431.00 377.00 
C 414.25 406.12 390.98 424.75 362.77 443.77 C 334.56 462.79 294.47 472.39 259.00 475.00 C 223.53 477.61 177.98 467.32 147.98 451.02 C 117.97 434.73 95.23 416.75 75.00 389.00
C 50.09 360.70 39.27 323.43 31.00 288.00
C 28.57 290.43 31.50 294.06 30.00 297.00
C 25.54 289.44 25.03 275.61 24.00 265.00
C 24.00 299.61 34.19 334.45 49.68 363.32 C 65.17 392.19 80.69 410.70 106.25 431.75 C 131.81 452.80 155.12 464.53 185.93 474.07 C 216.74 483.61 264.41 485.54 296.33 477.33 C 328.25 469.12 357.23 459.20 382.75 438.75 C 408.28 418.31 426.90 400.21 442.25 372.25 C 457.59 344.28 472.91 312.53 474.00 279.00 C 475.09 245.47 474.08 200.03 456.00 172.00
C 456.08 179.16 462.14 183.39 460.00 192.00
C 465.15 195.73 466.67 206.48 468.00 214.00 C 469.33 221.52 465.65 230.66 470.00 237.00
C 468.97 241.56 466.68 238.68 466.00 235.00
C 467.77 285.51 461.61 337.45 431.00 377.00 Z"/>
</g>
<g fill="#F9E4A8" fill-opacity="1.00" stroke="None">
<path d="
M 288.00 191.00 
C 295.83 184.38 297.88 170.60 312.00 174.00 C 326.12 177.40 339.11 170.92 353.00 174.00
C 359.79 175.50 357.26 189.19 357.00 196.00 C 356.74 202.81 338.83 194.98 337.00 202.00
C 339.16 198.92 344.75 200.00 348.00 200.00
C 349.65 200.00 351.36 200.13 353.00 200.00
C 362.82 199.22 355.70 189.55 358.00 181.00 C 360.30 172.46 349.48 172.23 342.00 173.00 C 334.52 173.77 325.61 173.00 318.00 173.00
C 316.33 173.00 314.67 173.00 313.00 173.00
C 311.67 173.00 310.33 173.00 309.00 173.00
C 295.14 173.00 294.28 181.51 288.00 191.00 Z"/>
</g>
<g fill="#FEF9DA" fill-opacity="1.00" stroke="None">
<path d="
M 149.00 198.00 
C 154.78 199.23 168.65 194.41 168.99 203.01 C 169.33 211.61 168.92 219.69 169.00 228.00 C 169.08 236.31 169.12 245.01 169.00 253.00 C 168.88 260.99 169.40 270.54 169.00 278.00 C 168.60 285.46 169.94 296.67 169.00 303.00 C 168.06 309.33 172.45 323.19 166.00 325.00
C 173.62 319.39 169.15 306.76 170.00 297.00 C 170.85 287.24 169.63 276.23 170.00 266.00 C 170.37 255.77 169.83 244.47 170.00 234.00 C 170.17 223.53 169.49 214.44 171.00 204.00 C 172.51 193.56 155.43 197.34 149.00 197.00
C 150.93 191.13 144.71 175.85 153.00 175.00 C 161.29 174.15 169.69 175.45 178.00 175.00 C 186.31 174.55 194.68 175.33 203.00 175.00
C 203.90 179.30 206.87 182.01 210.00 185.00
C 207.06 177.50 201.74 171.95 193.00 174.00 C 184.26 176.05 187.61 173.66 179.00 174.00 C 170.39 174.34 159.56 173.75 151.03 174.03 C 142.50 174.31 150.82 181.93 148.00 185.00 C 145.18 188.07 150.64 196.15 149.00 198.00 Z"/>
</g>
<g fill="#FEFAD9" fill-opacity="1.00" stroke="None">
<path d="
M 235.00 295.00 
C 238.35 300.39 241.98 305.63 245.00 311.00
C 247.79 314.91 251.28 319.58 256.00 321.00
C 256.66 344.58 254.67 368.87 257.00 392.00
C 259.63 393.27 267.20 391.83 270.00 392.00 C 272.80 392.17 280.36 393.32 282.00 391.00
C 284.92 385.09 281.20 373.75 282.00 367.00 C 282.80 360.25 282.80 349.75 282.00 343.00 C 281.20 336.25 284.92 324.91 282.00 319.00
C 279.90 316.03 273.33 318.80 270.00 318.00 C 266.67 317.20 260.58 318.60 257.00 318.00
C 265.18 298.82 279.25 281.53 292.00 265.00
C 293.26 262.77 294.66 260.37 296.00 258.00
C 297.75 254.90 299.23 250.71 303.00 249.00
C 304.21 256.87 304.80 266.81 304.00 275.00 C 303.20 283.19 305.80 295.40 304.00 303.00 C 302.20 310.60 310.47 326.09 298.00 325.00 C 285.53 323.91 285.54 327.42 285.00 340.00 C 284.46 352.58 289.88 352.83 301.00 352.00 C 312.12 351.17 318.73 352.43 329.00 352.00 C 339.27 351.57 346.97 352.33 357.00 352.00
C 357.00 343.00 357.00 334.00 357.00 325.00
C 350.27 322.03 335.56 328.27 336.00 318.00 C 336.44 307.73 335.76 298.91 336.00 289.00 C 336.24 279.09 335.79 269.71 336.00 260.00 C 336.21 250.29 335.69 240.54 336.00 231.00 C 336.31 221.46 334.94 211.62 337.00 203.00
C 337.00 203.00 336.88 202.47 337.00 202.00
C 338.83 194.98 356.74 202.81 357.00 196.00 C 357.26 189.19 359.79 175.50 353.00 174.00
C 359.09 179.35 355.15 190.59 355.00 198.00
C 341.91 194.57 333.29 199.81 335.00 213.00 C 336.71 226.19 334.20 237.27 335.00 250.00 C 335.80 262.73 334.58 274.46 335.00 287.00 C 335.42 299.54 334.69 311.51 335.00 324.00
C 339.22 329.46 352.34 321.79 355.67 327.33 C 359.00 332.87 353.86 344.79 356.00 351.00
C 333.00 351.00 310.00 351.00 287.00 351.00
C 291.44 345.98 278.89 323.75 291.00 326.00 C 303.11 328.25 307.06 320.82 305.00 310.00 C 302.94 299.18 306.71 288.10 305.00 279.00 C 303.29 269.90 307.83 255.89 304.30 249.71 C 300.76 243.52 293.57 259.94 289.33 262.33 C 285.09 264.72 283.25 277.17 278.08 281.08 C 272.91 285.00 270.03 294.26 265.75 299.75 C 261.47 305.25 257.03 312.34 255.00 319.00
C 245.06 312.32 243.53 302.46 235.00 295.00
M 257.00 391.00 
C 256.34 367.09 258.33 342.47 256.00 319.00
C 263.29 320.44 280.54 314.58 280.00 325.00 C 279.45 335.42 279.67 342.01 280.00 353.00 C 280.33 363.99 278.92 371.31 280.00 383.00 C 281.08 394.69 266.01 390.55 257.00 391.00 Z"/>
</g>
<g fill="#E0B517" fill-opacity="1.00" stroke="None">
<path d="
M 71.00 187.00 
C 60.84 185.74 56.39 204.14 67.00 206.00 C 77.60 207.86 80.80 188.22 71.00 187.00
M 72.00 189.00 
C 79.55 191.58 72.56 207.65 65.33 203.67 C 58.09 199.69 64.88 186.57 72.00 189.00 Z"/>
</g>
<g fill="#E6BB1D" fill-opacity="1.00" stroke="None">
<path d="
M 432.00 188.00 
C 421.04 183.90 417.12 200.19 426.93 205.07 C 436.73 209.96 440.88 191.33 432.00 188.00
M 431.00 189.00 
C 437.59 191.25 435.61 206.31 427.93 203.07 C 420.24 199.83 422.31 186.04 431.00 189.00 Z"/>
</g>
<g fill="#FCE02F" fill-opacity="1.00" stroke="None">
<path d="
M 72.00 189.00 
C 64.88 186.57 58.09 199.69 65.33 203.67 C 72.56 207.65 79.55 191.58 72.00 189.00 Z"/>
</g>
<g fill="#FCE030" fill-opacity="1.00" stroke="None">
<path d="
M 431.00 189.00 
C 422.31 186.04 420.24 199.83 427.93 203.07 C 435.61 206.31 437.59 191.25 431.00 189.00 Z"/>
</g>
<g fill="#EED187" fill-opacity="1.00" stroke="None">
<path d="
M 284.00 196.00 
C 283.48 197.07 282.45 198.13 282.00 199.00
C 277.95 206.79 271.19 218.00 265.77 224.77 C 260.35 231.54 253.99 248.32 245.00 238.00
C 253.55 249.49 261.51 233.58 266.75 225.75 C 271.99 217.93 280.25 207.58 284.00 199.00
C 284.59 197.15 285.09 194.66 286.00 193.00
C 284.90 194.24 284.74 194.48 284.00 196.00 Z"/>
</g>
<g fill="#FEF8DA" fill-opacity="1.00" stroke="None">
<path d="
M 284.00 199.00 
C 280.25 207.58 271.99 217.93 266.75 225.75 C 261.51 233.58 253.55 249.49 245.00 238.00
C 237.08 227.35 229.55 215.74 224.00 204.00
C 223.04 202.41 217.16 198.61 221.00 196.00
C 217.29 200.51 224.27 208.06 226.75 213.25 C 229.23 218.43 234.71 225.04 236.77 230.23 C 238.83 235.42 248.64 239.90 245.00 245.00
C 258.39 246.44 261.58 233.66 268.08 225.08 C 274.58 216.50 280.74 209.18 284.00 199.00 Z"/>
</g>
<g fill="#EACC6F" fill-opacity="1.00" stroke="None">
<path d="
M 282.00 391.00 
C 280.36 393.32 272.80 392.17 270.00 392.00 C 267.20 391.83 259.63 393.27 257.00 392.00
C 251.82 389.49 256.05 376.47 255.00 370.00 C 253.95 363.53 255.53 353.34 255.00 346.00 C 254.47 338.66 255.40 328.59 255.00 321.00
C 249.42 321.09 247.79 314.54 245.00 311.00
C 241.98 305.63 238.35 300.39 235.00 295.00
C 235.00 295.00 235.17 294.43 235.00 294.00
C 228.05 289.47 222.99 277.45 218.00 271.00
C 223.14 279.93 228.23 289.16 234.92 297.08 C 241.61 305.00 244.94 317.61 254.00 322.00
C 254.00 338.00 254.00 354.00 254.00 370.00
C 250.33 370.00 246.67 370.00 243.00 370.00
C 243.08 363.96 242.89 356.95 243.00 351.00 C 243.11 345.05 242.80 336.51 243.00 331.00 C 243.20 325.49 244.29 316.13 238.00 317.00 C 231.70 317.88 223.28 315.22 218.00 317.00 C 212.72 318.78 214.12 326.42 206.00 324.00 C 197.88 321.58 203.18 314.54 202.00 308.00 C 200.82 301.46 202.52 295.56 202.00 289.00 C 201.48 282.44 202.27 275.61 202.00 269.00 C 201.73 262.39 202.20 255.63 202.00 249.00
C 203.66 249.54 204.33 251.56 206.00 252.00
C 204.87 250.26 203.31 247.90 201.00 248.00
C 199.93 259.33 202.42 269.56 201.00 281.00 C 199.58 292.44 203.73 302.15 201.00 314.00 C 198.27 325.85 214.07 330.66 217.00 318.00
C 226.24 318.86 243.03 313.67 242.00 326.00 C 240.97 338.33 242.54 347.30 242.00 359.00 C 241.46 370.70 242.40 380.48 242.00 392.00
C 233.45 390.34 215.40 397.10 216.00 385.00 C 216.60 372.90 215.55 363.82 216.00 352.00
C 193.33 352.00 170.67 352.00 148.00 352.00
C 148.00 343.00 148.00 334.00 148.00 325.00
C 152.33 325.00 156.67 325.00 161.00 325.00
C 162.58 325.00 164.45 325.28 166.00 325.00
C 172.45 323.19 168.06 309.33 169.00 303.00 C 169.94 296.67 168.60 285.46 169.00 278.00 C 169.40 270.54 168.88 260.99 169.00 253.00 C 169.12 245.01 169.08 236.31 169.00 228.00 C 168.92 219.69 169.33 211.61 168.99 203.01 C 168.65 194.41 154.78 199.23 149.00 198.00
C 148.65 197.92 147.16 197.36 147.00 197.00
C 150.92 203.14 167.46 193.88 168.00 203.00 C 168.54 212.12 167.72 220.99 168.00 230.00 C 168.28 239.01 167.83 246.99 168.00 256.00 C 168.17 265.01 167.81 273.89 168.00 283.00 C 168.19 292.11 167.67 299.58 168.00 309.00 C 168.33 318.42 168.95 326.62 156.00 324.00 C 143.05 321.38 148.88 332.24 147.00 342.00 C 145.12 351.76 152.38 354.60 162.00 353.00 C 171.62 351.40 179.76 353.86 189.00 353.00 C 198.24 352.14 205.90 353.65 215.00 353.00
C 214.09 365.05 216.21 370.27 215.00 383.00 C 213.79 395.73 222.59 392.04 234.00 393.00 C 245.41 393.96 243.54 382.82 243.00 373.00
C 246.67 373.00 250.33 373.00 254.00 373.00
C 253.61 378.02 252.42 394.56 259.00 393.00 C 265.58 391.44 279.08 396.90 282.00 391.00 Z"/>
</g>
<g fill="#F0D27C" fill-opacity="1.00" stroke="None">
<path d="
M 296.00 258.00 
C 299.36 257.12 299.47 252.00 303.00 252.00
C 303.00 276.00 303.00 300.00 303.00 324.00
C 291.15 322.45 283.32 322.90 284.00 335.00 C 284.68 347.10 282.60 354.34 295.00 353.00 C 307.40 351.66 313.19 354.03 324.00 353.00 C 334.81 351.97 343.03 354.41 353.00 353.00 C 362.97 351.58 356.24 338.54 359.00 330.00 C 361.76 321.46 342.58 322.23 337.00 323.00
C 337.00 283.00 337.00 243.00 337.00 203.00
C 334.94 211.62 336.31 221.46 336.00 231.00 C 335.69 240.54 336.21 250.29 336.00 260.00 C 335.79 269.71 336.24 279.09 336.00 289.00 C 335.76 298.91 336.44 307.73 336.00 318.00 C 335.56 328.27 350.27 322.03 357.00 325.00
C 357.00 334.00 357.00 343.00 357.00 352.00
C 346.97 352.33 339.27 351.57 329.00 352.00 C 318.73 352.43 312.12 351.17 301.00 352.00 C 289.88 352.83 284.46 352.58 285.00 340.00 C 285.54 327.42 285.53 323.91 298.00 325.00 C 310.47 326.09 302.20 310.60 304.00 303.00 C 305.80 295.40 303.20 283.19 304.00 275.00 C 304.80 266.81 304.21 256.87 303.00 249.00
C 299.23 250.71 297.75 254.90 296.00 258.00 Z"/>
</g>
<g fill="#EDB723" fill-opacity="1.00" stroke="None">
<path d="
M 392.00 206.00 
C 392.03 215.39 395.42 225.71 398.23 235.77 C 401.04 245.83 421.87 242.61 428.00 240.00
C 419.95 237.37 403.44 242.76 400.98 232.02 C 398.51 221.29 396.32 215.51 392.00 206.00 Z"/>
</g>
<g fill="#646347" fill-opacity="0.12" stroke="None">
<path d="
M 24.00 217.00 
C 24.27 215.75 25.58 213.03 26.00 211.00
C 25.57 212.48 24.20 215.13 24.00 217.00 Z"/>
</g>
<g fill="#FBDF2D" fill-opacity="1.00" stroke="None">
<path d="
M 63.00 218.00 
C 54.17 215.46 50.05 230.87 58.00 234.00 C 65.95 237.12 70.88 220.27 63.00 218.00 Z"/>
</g>
<g fill="#FCDF2F" fill-opacity="1.00" stroke="None">
<path d="
M 440.00 218.00 
C 431.56 215.12 427.91 230.99 436.00 234.00 C 444.09 237.01 447.51 220.56 440.00 218.00 Z"/>
</g>
<g fill="#696446" fill-opacity="0.22" stroke="None">
<path d="
M 23.00 227.00 
C 23.37 225.53 23.94 224.08 24.00 222.00
C 23.87 223.00 23.21 225.41 23.00 227.00 Z"/>
</g>
<g fill="#CFD0A3" fill-opacity="0.47" stroke="None">
<path d="
M 21.00 251.00 
C 21.00 254.67 21.00 258.33 21.00 262.00
C 21.00 265.33 21.00 268.67 21.00 272.00
C 21.78 263.95 21.23 254.05 21.00 246.00
C 20.92 247.66 21.00 249.34 21.00 251.00 Z"/>
</g>
<g fill="#FDF7D1" fill-opacity="1.00" stroke="None">
<path d="
M 161.00 325.00 
C 156.67 325.00 152.33 325.00 148.00 325.00
C 148.00 334.00 148.00 343.00 148.00 352.00
C 170.67 352.00 193.33 352.00 216.00 352.00
C 215.55 363.82 216.60 372.90 216.00 385.00 C 215.40 397.10 233.45 390.34 242.00 392.00
C 242.40 380.48 241.46 370.70 242.00 359.00 C 242.54 347.30 240.97 338.33 242.00 326.00 C 243.03 313.67 226.24 318.86 217.00 318.00
C 214.07 330.66 198.27 325.85 201.00 314.00 C 203.73 302.15 199.58 292.44 201.00 281.00 C 202.42 269.56 199.93 259.33 201.00 248.00
C 203.31 247.90 204.87 250.26 206.00 252.00
C 209.92 258.01 214.34 264.63 218.00 271.00
C 222.99 277.45 228.05 289.47 235.00 294.00
C 232.14 287.99 227.36 281.61 223.77 276.23 C 220.18 270.85 212.43 264.10 217.00 260.00
C 211.47 259.84 211.25 257.67 206.90 251.10 C 202.55 244.53 198.89 247.75 200.00 256.00 C 201.11 264.25 199.27 271.45 200.00 279.00 C 200.73 286.55 199.17 294.22 200.00 301.00 C 200.83 307.78 198.49 317.28 200.08 322.92 C 201.67 328.56 215.45 328.30 217.01 323.01 C 218.57 317.72 227.75 318.56 235.00 319.00 C 242.24 319.45 239.76 329.88 240.00 337.00 C 240.24 344.12 239.53 350.87 240.00 359.00 C 240.47 367.13 238.99 371.33 240.00 381.00 C 241.01 390.67 236.92 390.85 227.00 391.00 C 217.08 391.15 217.92 386.41 218.00 378.00 C 218.08 369.59 218.71 362.58 217.99 355.01 C 217.27 347.44 207.46 350.85 201.00 350.00 C 194.54 349.15 186.65 350.27 179.00 350.00 C 171.35 349.73 164.79 349.92 156.00 350.00 C 147.21 350.08 149.71 343.46 149.00 335.00 C 148.29 326.55 153.69 325.78 161.00 325.00 Z"/>
</g>
<g fill="#FCDE2D" fill-opacity="1.00" stroke="None">
<path d="
M 59.00 249.00 
C 51.58 246.47 53.10 255.88 57.67 260.33 C 62.24 264.78 50.37 272.38 53.26 276.74 C 56.14 281.11 66.01 272.15 63.00 267.00 C 59.99 261.85 66.74 251.64 59.00 249.00 Z"/>
</g>
<g fill="#E3B01F" fill-opacity="1.00" stroke="None">
<path d="
M 218.00 271.00 
C 214.34 264.63 209.92 258.01 206.00 252.00
C 204.33 251.56 203.66 249.54 202.00 249.00
C 202.20 255.63 201.73 262.39 202.00 269.00 C 202.27 275.61 201.48 282.44 202.00 289.00 C 202.52 295.56 200.82 301.46 202.00 308.00 C 203.18 314.54 197.88 321.58 206.00 324.00 C 214.12 326.42 212.72 318.78 218.00 317.00 C 223.28 315.22 231.70 317.88 238.00 317.00 C 244.29 316.13 243.20 325.49 243.00 331.00 C 242.80 336.51 243.11 345.05 243.00 351.00 C 242.89 356.95 243.08 363.96 243.00 370.00
C 246.67 370.00 250.33 370.00 254.00 370.00
C 254.00 354.00 254.00 338.00 254.00 322.00
C 244.94 317.61 241.61 305.00 234.92 297.08 C 228.23 289.16 223.14 279.93 218.00 271.00 Z"/>
</g>
<g fill="#FDDF30" fill-opacity="1.00" stroke="None">
<path d="
M 445.00 250.00 
C 431.14 244.66 430.13 278.71 444.00 276.00
C 438.32 267.67 439.97 258.18 445.00 250.00 Z"/>
</g>
<g fill="#3E3E00" fill-opacity="0.02" stroke="None">
<path d="
M 21.00 262.00 
C 21.00 258.33 21.00 254.67 21.00 251.00
C 20.64 254.43 20.66 258.52 21.00 262.00 Z"/>
</g>
<g fill="#FADE2A" fill-opacity="1.00" stroke="None">
<path d="
M 49.00 251.00 
C 40.47 253.72 33.74 268.78 45.26 272.74 C 56.77 276.70 56.55 255.47 49.00 251.00 Z"/>
</g>
<g fill="#767057" fill-opacity="0.04" stroke="None">
<path d="
M 476.00 275.00 
C 476.91 267.50 476.73 258.55 476.00 251.00
C 476.00 258.99 476.16 267.01 476.00 275.00 Z"/>
</g>
<g fill="#FDE32F" fill-opacity="1.00" stroke="None">
<path d="
M 449.00 273.00 
C 460.23 269.45 460.31 257.65 450.00 253.00
C 444.11 258.46 442.36 267.02 449.00 273.00 Z"/>
</g>
<g fill="#EBD07D" fill-opacity="1.00" stroke="None">
<path d="
M 282.00 319.00 
C 275.89 314.48 265.69 318.23 258.00 317.00
C 267.00 298.37 281.81 283.10 292.00 265.00
C 279.25 281.53 265.18 298.82 257.00 318.00
C 260.58 318.60 266.67 317.20 270.00 318.00 C 273.33 318.80 279.90 316.03 282.00 319.00 Z"/>
</g>
<g fill="#F7C926" fill-opacity="1.00" stroke="None">
<path d="
M 92.00 277.00 
C 92.08 353.68 163.70 418.42 239.00 424.00 C 314.30 429.58 396.49 377.54 413.00 302.00
C 406.49 306.07 406.21 318.97 402.31 326.31 C 398.40 333.64 395.19 341.65 390.25 348.25 C 385.31 354.85 380.77 360.92 374.75 366.75 C 368.73 372.58 363.62 377.82 357.08 383.08 C 350.54 388.35 343.28 392.37 336.08 397.08 C 328.87 401.78 321.34 404.41 313.22 408.22 C 305.11 412.03 297.20 414.74 288.01 417.01 C 278.82 419.28 267.04 419.42 257.00 420.00 C 246.96 420.58 233.45 419.46 224.01 417.99 C 214.57 416.52 205.32 414.42 197.03 410.97 C 188.73 407.53 181.29 404.57 173.75 400.25 C 166.20 395.94 160.50 391.28 153.75 386.25 C 146.99 381.23 140.43 376.79 134.75 370.25 C 129.07 363.71 123.54 359.28 118.77 352.23 C 114.00 345.18 110.07 338.47 106.32 330.68 C 102.58 322.88 98.86 314.84 96.98 306.02 C 95.10 297.21 91.70 286.58 92.00 277.00 Z"/>
</g>
<g fill="#E0D8B1" fill-opacity="0.43" stroke="None">
<path d="
M 475.00 292.00 
C 475.38 290.52 474.95 288.53 475.00 287.00
C 474.79 288.41 475.02 290.76 475.00 292.00 Z"/>
</g>
<g fill="#DED7AD" fill-opacity="0.61" stroke="None">
<path d="
M 473.00 302.00 
C 473.46 299.32 473.45 296.67 474.00 294.00
C 471.94 297.25 473.08 298.95 473.00 302.00 Z"/>
</g>
<g fill="#FDE22B" fill-opacity="1.00" stroke="None">
<path d="
M 63.00 295.00 
C 53.96 292.22 50.47 305.25 58.78 309.22 C 67.09 313.19 70.68 297.36 63.00 295.00 Z"/>
</g>
<g fill="#FBE02D" fill-opacity="1.00" stroke="None">
<path d="
M 441.00 295.00 
C 431.38 291.25 425.93 305.98 433.78 310.22 C 441.63 314.46 448.34 297.86 441.00 295.00 Z"/>
</g>
<g fill="#6E6C52" fill-opacity="0.12" stroke="None">
<path d="
M 26.00 306.00 
C 25.64 304.06 24.41 301.59 24.00 300.00
C 24.45 302.50 25.51 304.27 26.00 306.00 Z"/>
</g>
<g fill="#FEF0AD" fill-opacity="1.00" stroke="None">
<path d="
M 257.00 392.00 
C 254.67 368.87 256.66 344.58 256.00 321.00
C 251.28 319.58 247.79 314.91 245.00 311.00
C 247.79 314.54 249.42 321.09 255.00 321.00
C 255.40 328.59 254.47 338.66 255.00 346.00 C 255.53 353.34 253.95 363.53 255.00 370.00 C 256.05 376.47 251.82 389.49 257.00 392.00 Z"/>
</g>
<g fill="#FEFEFD" fill-opacity="1.00" stroke="None">
<path d="
M 257.00 391.00 
C 266.01 390.55 281.08 394.69 280.00 383.00 C 278.92 371.31 280.33 363.99 280.00 353.00 C 279.67 342.01 279.45 335.42 280.00 325.00 C 280.54 314.58 263.29 320.44 256.00 319.00
C 258.33 342.47 256.34 367.09 257.00 391.00 Z"/>
</g>
<g fill="#FDE32C" fill-opacity="1.00" stroke="None">
<path d="
M 72.00 326.00 
C 62.01 323.32 60.69 339.01 70.00 342.00 C 79.31 344.99 80.92 328.39 72.00 326.00 Z"/>
</g>
<g fill="#FDE42D" fill-opacity="1.00" stroke="None">
<path d="
M 431.00 326.00 
C 423.15 322.17 414.17 335.73 421.78 341.22 C 429.38 346.72 438.15 329.49 431.00 326.00 Z"/>
</g>
<g fill="#C79F06" fill-opacity="1.00" stroke="None">
<path d="
M 75.00 389.00 
C 95.23 416.75 117.97 434.73 147.98 451.02 C 177.98 467.32 223.53 477.61 259.00 475.00 C 294.47 472.39 334.56 462.79 362.77 443.77 C 390.98 424.75 414.25 406.12 431.00 377.00
C 438.61 362.32 449.95 346.38 452.00 331.00
C 421.69 412.54 344.02 468.99 257.00 472.00 C 169.98 475.01 85.63 423.96 50.00 344.00
C 55.56 359.98 64.86 375.09 75.00 389.00 Z"/>
</g>
<g fill="#676446" fill-opacity="0.16" stroke="None">
<path d="
M 462.00 339.00 
C 462.80 337.17 464.33 335.23 465.00 333.00
C 464.23 334.80 462.73 336.71 462.00 339.00 Z"/>
</g>
<g fill="#FBE02A" fill-opacity="1.00" stroke="None">
<path d="
M 88.00 356.00 
C 77.19 353.10 75.41 370.15 85.33 372.67 C 95.24 375.19 96.86 358.38 88.00 356.00 Z"/>
</g>
<g fill="#FBDF29" fill-opacity="1.00" stroke="None">
<path d="
M 416.00 356.00 
C 407.77 352.79 397.98 366.11 406.33 371.67 C 414.68 377.23 424.46 359.30 416.00 356.00 Z"/>
</g>
<g fill="#FBE12A" fill-opacity="1.00" stroke="None">
<path d="
M 107.00 382.00 
C 94.99 379.46 93.57 395.01 104.78 398.22 C 115.99 401.44 117.23 384.16 107.00 382.00 Z"/>
</g>
<g fill="#FBE02B" fill-opacity="1.00" stroke="None">
<path d="
M 398.00 382.00 
C 389.30 377.51 378.26 391.37 386.33 397.67 C 394.40 403.97 406.43 386.36 398.00 382.00 Z"/>
</g>
<g fill="#FBDE2A" fill-opacity="1.00" stroke="None">
<path d="
M 121.00 393.00 
C 113.60 392.91 116.58 405.15 124.00 406.00 C 131.41 406.85 128.51 393.09 121.00 393.00 Z"/>
</g>
<g fill="#FBDC2B" fill-opacity="1.00" stroke="None">
<path d="
M 380.00 394.00 
C 373.47 389.52 364.45 402.00 369.93 406.07 C 375.41 410.14 384.08 396.80 380.00 394.00 Z"/>
</g>
<g fill="#FCE52F" fill-opacity="1.00" stroke="None">
<path d="
M 137.00 412.00 
C 140.58 412.42 149.73 428.72 153.67 423.67 C 157.61 418.62 142.48 406.10 137.00 412.00 Z"/>
</g>
<g fill="#FDE32E" fill-opacity="1.00" stroke="None">
<path d="
M 348.00 425.00 
C 348.58 417.39 366.17 413.33 356.00 411.00 C 345.84 408.68 338.81 423.34 348.00 425.00 Z"/>
</g>
<g fill="#BBB68B" fill-opacity="0.35" stroke="None">
<path d="
M 406.00 423.00 
C 409.95 420.36 412.29 416.30 415.00 413.00
C 411.50 415.99 408.82 419.94 406.00 423.00 Z"/>
</g>
<g fill="#FDE72D" fill-opacity="1.00" stroke="None">
<path d="
M 140.00 418.00 
C 127.06 414.79 128.21 428.97 138.78 432.22 C 149.34 435.47 149.92 420.46 140.00 418.00 Z"/>
</g>
<g fill="#FDE92E" fill-opacity="1.00" stroke="None">
<path d="
M 366.00 418.00 
C 358.93 413.00 345.46 425.32 352.31 431.69 C 359.15 438.07 372.17 422.36 366.00 418.00 Z"/>
</g>
<g fill="#F6DC26" fill-opacity="1.00" stroke="None">
<path d="
M 333.00 430.00 
C 327.57 417.44 302.26 434.58 317.00 442.00
C 312.78 457.09 341.34 450.54 336.00 437.00
C 331.83 436.18 330.78 432.88 333.00 430.00 Z"/>
</g>
<g fill="#5F5E47" fill-opacity="0.10" stroke="None">
<path d="
M 397.00 431.00 
C 399.30 429.18 402.29 427.27 404.00 425.00
C 402.09 426.90 399.15 429.02 397.00 431.00 Z"/>
</g>
<g fill="#FBE02B" fill-opacity="1.00" stroke="None">
<path d="
M 183.00 439.00 
C 189.10 428.90 166.30 419.80 165.00 432.00
C 171.85 432.25 176.85 437.36 183.00 439.00 Z"/>
</g>
<g fill="#FAE228" fill-opacity="1.00" stroke="None">
<path d="
M 182.00 448.00 
C 181.69 438.56 169.77 432.19 162.00 437.00
C 158.39 449.14 173.86 455.17 182.00 448.00 Z"/>
</g>
<g fill="#F7DD26" fill-opacity="1.00" stroke="None">
<path d="
M 212.00 449.00 
C 224.13 441.97 201.41 431.89 197.92 438.92 C 194.44 445.95 191.82 455.13 199.78 460.22 C 207.74 465.32 221.43 457.96 212.00 449.00 Z"/>
</g>
<g fill="#FCE52D" fill-opacity="1.00" stroke="None">
<path d="
M 284.00 446.00 
C 287.84 444.28 302.71 445.24 298.25 439.75 C 293.78 434.27 281.80 438.92 284.00 446.00 Z"/>
</g>
<g fill="#F9DD29" fill-opacity="1.00" stroke="None">
<path d="
M 262.00 443.00 
C 260.09 449.13 274.34 454.95 277.00 448.00 C 279.66 441.06 266.27 438.48 262.00 443.00 Z"/>
</g>
<g fill="#FDE42B" fill-opacity="1.00" stroke="None">
<path d="
M 234.00 443.00 
C 230.23 440.38 218.99 442.29 222.31 447.69 C 225.62 453.09 236.88 448.35 234.00 443.00 Z"/>
</g>
<g fill="#FCE52D" fill-opacity="1.00" stroke="None">
<path d="
M 262.00 454.00 
C 263.09 438.63 235.67 439.33 235.00 454.00
C 244.03 449.36 253.16 447.65 262.00 454.00 Z"/>
</g>
<g fill="#FDEC2F" fill-opacity="1.00" stroke="None">
<path d="
M 297.00 447.00 
C 288.00 444.58 281.32 455.36 289.78 459.22 C 298.24 463.07 305.47 449.27 297.00 447.00 Z"/>
</g>
<g fill="#FDEC2F" fill-opacity="1.00" stroke="None">
<path d="
M 251.00 452.00 
C 245.47 451.15 234.64 456.45 240.25 462.75 C 245.86 469.06 249.20 467.66 255.77 463.77 C 262.34 459.88 257.24 452.96 251.00 452.00 Z"/>
</g>
<g fill="#6A6842" fill-opacity="0.12" stroke="None">
<path d="
M 181.00 476.00 
C 179.88 475.52 178.46 474.42 177.00 474.00
C 178.25 474.53 179.31 475.46 181.00 476.00 Z"/>
</g>
<g fill="#CFD0A4" fill-opacity="0.66" stroke="None">
<path d="
M 297.00 480.00 
C 298.31 479.84 299.69 480.19 301.00 480.00
C 299.99 480.06 298.48 479.60 297.00 480.00 Z"/>
</g>
<g fill="#68684E" fill-opacity="0.13" stroke="None">
<path d="
M 210.00 483.00 
C 208.63 482.64 206.85 482.29 205.00 482.00
C 206.44 482.41 208.07 482.73 210.00 483.00 Z"/>
</g>
<g fill="#6C6A48" fill-opacity="0.15" stroke="None">
<path d="
M 285.00 483.00 
C 287.24 482.72 289.24 482.50 291.00 482.00
C 288.96 482.34 286.59 482.63 285.00 483.00 Z"/>
</g>
<g fill="#CAC89A" fill-opacity="0.49" stroke="None">
<path d="
M 220.00 485.00 
C 224.48 485.42 229.62 484.03 234.00 485.00
C 230.73 481.98 223.41 484.99 220.00 485.00 Z"/>
</g>
<g fill="#CCC8A2" fill-opacity="0.45" stroke="None">
<path d="
M 263.00 485.00 
C 267.07 484.10 271.84 485.39 276.00 485.00
C 272.89 484.99 266.15 482.10 263.00 485.00 Z"/>
</g>
<g fill="#B6B490" fill-opacity="0.44" stroke="None">
<path d="
M 235.00 486.00 
C 242.86 487.13 254.14 487.13 262.00 486.00
C 255.04 483.91 242.02 483.90 235.00 486.00 Z"/>
</g>
</svg>